<mxfile host="app.diagrams.net" modified="2023-12-04T13:13:01.541Z" agent="Mozilla/5.0 (Windows NT 10.0; Win64; x64; rv:120.0) Gecko/20100101 Firefox/120.0" etag="T3LsOKjHs-m1yvlsCdXU" version="22.1.5" type="device">
  <diagram id="mJXPWrO6sumyQPwMplqt" name="Page-1">
    <mxGraphModel dx="398" dy="217" grid="1" gridSize="10" guides="1" tooltips="1" connect="1" arrows="1" fold="1" page="1" pageScale="1" pageWidth="850" pageHeight="1100" math="0" shadow="0">
      <root>
        <mxCell id="0" />
        <mxCell id="1" parent="0" />
        <mxCell id="xj53HpRqYV9dowp1CzrN-1" value="" style="rounded=0;whiteSpace=wrap;html=1;" parent="1" vertex="1">
          <mxGeometry x="410" y="60" width="90" height="40" as="geometry" />
        </mxCell>
        <mxCell id="xj53HpRqYV9dowp1CzrN-27" value="" style="edgeStyle=orthogonalEdgeStyle;rounded=0;orthogonalLoop=1;jettySize=auto;html=1;entryX=0.5;entryY=0;entryDx=0;entryDy=0;entryPerimeter=0;" parent="1" source="xj53HpRqYV9dowp1CzrN-2" target="xj53HpRqYV9dowp1CzrN-3" edge="1">
          <mxGeometry relative="1" as="geometry" />
        </mxCell>
        <mxCell id="xj53HpRqYV9dowp1CzrN-2" value="" style="rounded=0;whiteSpace=wrap;html=1;fillColor=#dae8fc;strokeColor=#6c8ebf;" parent="1" vertex="1">
          <mxGeometry x="650" y="60" width="90" height="40" as="geometry" />
        </mxCell>
        <mxCell id="xj53HpRqYV9dowp1CzrN-28" value="" style="edgeStyle=orthogonalEdgeStyle;rounded=0;orthogonalLoop=1;jettySize=auto;html=1;" parent="1" source="xj53HpRqYV9dowp1CzrN-3" target="sgM2N3eoS-LlcGtdtWiz-1" edge="1">
          <mxGeometry relative="1" as="geometry">
            <mxPoint x="620" y="150" as="targetPoint" />
          </mxGeometry>
        </mxCell>
        <mxCell id="xj53HpRqYV9dowp1CzrN-3" value="" style="rounded=0;whiteSpace=wrap;html=1;" parent="1" vertex="1">
          <mxGeometry x="650" y="130" width="90" height="40" as="geometry" />
        </mxCell>
        <mxCell id="xj53HpRqYV9dowp1CzrN-5" value="" style="rounded=0;whiteSpace=wrap;html=1;fillColor=#dae8fc;strokeColor=#6c8ebf;" parent="1" vertex="1">
          <mxGeometry x="530" y="60" width="90" height="40" as="geometry" />
        </mxCell>
        <mxCell id="xj53HpRqYV9dowp1CzrN-22" value="" style="edgeStyle=orthogonalEdgeStyle;rounded=0;orthogonalLoop=1;jettySize=auto;html=1;" parent="1" source="xj53HpRqYV9dowp1CzrN-6" target="xj53HpRqYV9dowp1CzrN-10" edge="1">
          <mxGeometry relative="1" as="geometry" />
        </mxCell>
        <mxCell id="xj53HpRqYV9dowp1CzrN-6" value="" style="rounded=0;whiteSpace=wrap;html=1;fillColor=#dae8fc;strokeColor=#6c8ebf;" parent="1" vertex="1">
          <mxGeometry x="290" y="60" width="90" height="40" as="geometry" />
        </mxCell>
        <mxCell id="xj53HpRqYV9dowp1CzrN-21" value="" style="edgeStyle=orthogonalEdgeStyle;rounded=0;orthogonalLoop=1;jettySize=auto;html=1;" parent="1" source="xj53HpRqYV9dowp1CzrN-7" edge="1">
          <mxGeometry relative="1" as="geometry">
            <mxPoint x="290" y="80" as="targetPoint" />
          </mxGeometry>
        </mxCell>
        <mxCell id="xj53HpRqYV9dowp1CzrN-7" value="" style="rounded=0;whiteSpace=wrap;html=1;" parent="1" vertex="1">
          <mxGeometry x="170" y="60" width="90" height="40" as="geometry" />
        </mxCell>
        <mxCell id="xj53HpRqYV9dowp1CzrN-20" value="" style="edgeStyle=orthogonalEdgeStyle;rounded=0;orthogonalLoop=1;jettySize=auto;html=1;" parent="1" source="xj53HpRqYV9dowp1CzrN-8" edge="1">
          <mxGeometry relative="1" as="geometry">
            <mxPoint x="170" y="80" as="targetPoint" />
          </mxGeometry>
        </mxCell>
        <mxCell id="xj53HpRqYV9dowp1CzrN-8" value="" style="rounded=0;whiteSpace=wrap;html=1;" parent="1" vertex="1">
          <mxGeometry x="50" y="60" width="90" height="40" as="geometry" />
        </mxCell>
        <mxCell id="xj53HpRqYV9dowp1CzrN-9" value="Start" style="text;html=1;strokeColor=none;fillColor=none;align=center;verticalAlign=middle;whiteSpace=wrap;rounded=0;" parent="1" vertex="1">
          <mxGeometry x="65" y="65" width="60" height="30" as="geometry" />
        </mxCell>
        <mxCell id="xj53HpRqYV9dowp1CzrN-10" value="Initialize" style="text;html=1;strokeColor=none;fillColor=none;align=center;verticalAlign=middle;whiteSpace=wrap;rounded=0;" parent="1" vertex="1">
          <mxGeometry x="185" y="65" width="60" height="30" as="geometry" />
        </mxCell>
        <mxCell id="xj53HpRqYV9dowp1CzrN-11" value="Git Secrets" style="text;html=1;strokeColor=none;fillColor=none;align=center;verticalAlign=middle;whiteSpace=wrap;rounded=0;" parent="1" vertex="1">
          <mxGeometry x="305" y="65" width="60" height="30" as="geometry" />
        </mxCell>
        <mxCell id="xj53HpRqYV9dowp1CzrN-12" value="Build" style="text;html=1;strokeColor=none;fillColor=none;align=center;verticalAlign=middle;whiteSpace=wrap;rounded=0;" parent="1" vertex="1">
          <mxGeometry x="425" y="65" width="60" height="30" as="geometry" />
        </mxCell>
        <mxCell id="xj53HpRqYV9dowp1CzrN-13" value="Source Code Analysis" style="text;html=1;strokeColor=none;fillColor=none;align=center;verticalAlign=middle;whiteSpace=wrap;rounded=0;" parent="1" vertex="1">
          <mxGeometry x="530" y="65" width="90" height="30" as="geometry" />
        </mxCell>
        <mxCell id="xj53HpRqYV9dowp1CzrN-14" value="SAST" style="text;html=1;strokeColor=none;fillColor=none;align=center;verticalAlign=middle;whiteSpace=wrap;rounded=0;" parent="1" vertex="1">
          <mxGeometry x="665" y="65" width="60" height="30" as="geometry" />
        </mxCell>
        <mxCell id="xj53HpRqYV9dowp1CzrN-16" value="Deploy to (TESTING) Tomcat" style="text;html=1;strokeColor=none;fillColor=none;align=center;verticalAlign=middle;whiteSpace=wrap;rounded=0;" parent="1" vertex="1">
          <mxGeometry x="665" y="135" width="60" height="30" as="geometry" />
        </mxCell>
        <mxCell id="xj53HpRqYV9dowp1CzrN-17" value="" style="rounded=0;whiteSpace=wrap;html=1;" parent="1" vertex="1">
          <mxGeometry x="375" y="640" width="90" height="40" as="geometry" />
        </mxCell>
        <mxCell id="xj53HpRqYV9dowp1CzrN-18" value="Upload reports to Defect Dojo" style="text;html=1;strokeColor=none;fillColor=none;align=center;verticalAlign=middle;whiteSpace=wrap;rounded=0;" parent="1" vertex="1">
          <mxGeometry x="375" y="645" width="90" height="30" as="geometry" />
        </mxCell>
        <mxCell id="xj53HpRqYV9dowp1CzrN-24" value="" style="edgeStyle=orthogonalEdgeStyle;rounded=0;orthogonalLoop=1;jettySize=auto;html=1;" parent="1" edge="1">
          <mxGeometry relative="1" as="geometry">
            <mxPoint x="620" y="79.89000000000006" as="sourcePoint" />
            <mxPoint x="650" y="79.89" as="targetPoint" />
          </mxGeometry>
        </mxCell>
        <mxCell id="xj53HpRqYV9dowp1CzrN-25" value="" style="edgeStyle=orthogonalEdgeStyle;rounded=0;orthogonalLoop=1;jettySize=auto;html=1;" parent="1" edge="1">
          <mxGeometry relative="1" as="geometry">
            <mxPoint x="500" y="79.89000000000006" as="sourcePoint" />
            <mxPoint x="530" y="79.89" as="targetPoint" />
          </mxGeometry>
        </mxCell>
        <mxCell id="xj53HpRqYV9dowp1CzrN-26" value="" style="edgeStyle=orthogonalEdgeStyle;rounded=0;orthogonalLoop=1;jettySize=auto;html=1;" parent="1" edge="1">
          <mxGeometry relative="1" as="geometry">
            <mxPoint x="380" y="79.89000000000006" as="sourcePoint" />
            <mxPoint x="410" y="79.89" as="targetPoint" />
          </mxGeometry>
        </mxCell>
        <mxCell id="sgM2N3eoS-LlcGtdtWiz-2" style="edgeStyle=orthogonalEdgeStyle;rounded=0;orthogonalLoop=1;jettySize=auto;html=1;entryX=0.5;entryY=0;entryDx=0;entryDy=0;" edge="1" parent="1" source="sgM2N3eoS-LlcGtdtWiz-1" target="xj53HpRqYV9dowp1CzrN-17">
          <mxGeometry relative="1" as="geometry" />
        </mxCell>
        <mxCell id="sgM2N3eoS-LlcGtdtWiz-1" value="" style="shape=image;verticalLabelPosition=bottom;verticalAlign=top;imageAspect=0;image=data:image/png,iVBORw0KGgoAAAANSUhEUgAAA+kAAAGRCAYAAAAZ0/L6AABfDXRFWHRteGZpbGUAJTNDbXhmaWxlJTIwaG9zdCUzRCUyMmFwcC5kaWFncmFtcy5uZXQlMjIlMjBtb2RpZmllZCUzRCUyMjIwMjMtMTItMDRUMTMlM0EwOCUzQTMwLjk1MFolMjIlMjBhZ2VudCUzRCUyMk1vemlsbGElMkY1LjAlMjAoV2luZG93cyUyME5UJTIwMTAuMCUzQiUyMFdpbjY0JTNCJTIweDY0JTNCJTIwcnYlM0ExMjAuMCklMjBHZWNrbyUyRjIwMTAwMTAxJTIwRmlyZWZveCUyRjEyMC4wJTIyJTIwZXRhZyUzRCUyMlZJWEVDT3ptUTM0ZEV2ZWlwOUJMJTIyJTIwdmVyc2lvbiUzRCUyMjIyLjEuNSUyMiUyMHR5cGUlM0QlMjJkZXZpY2UlMjIlMjBwYWdlcyUzRCUyMjIlMjIlM0UlMEElMjAlMjAlM0NkaWFncmFtJTIwbmFtZSUzRCUyMlBhZ2UtMSUyMiUyMGlkJTNEJTIyUjZNMjI1MFktN24zLTAyM1N5S0olMjIlM0UlMEElMjAlMjAlMjAlMjAlM0NteEdyYXBoTW9kZWwlMjBkeCUzRCUyMjIzNTklMjIlMjBkeSUzRCUyMjc3MyUyMiUyMGdyaWQlM0QlMjIxJTIyJTIwZ3JpZFNpemUlM0QlMjIxMCUyMiUyMGd1aWRlcyUzRCUyMjElMjIlMjB0b29sdGlwcyUzRCUyMjElMjIlMjBjb25uZWN0JTNEJTIyMSUyMiUyMGFycm93cyUzRCUyMjElMjIlMjBmb2xkJTNEJTIyMSUyMiUyMHBhZ2UlM0QlMjIxJTIyJTIwcGFnZVNjYWxlJTNEJTIyMSUyMiUyMHBhZ2VXaWR0aCUzRCUyMjg1MCUyMiUyMHBhZ2VIZWlnaHQlM0QlMjIxMTAwJTIyJTIwbWF0aCUzRCUyMjAlMjIlMjBzaGFkb3clM0QlMjIwJTIyJTNFJTBBJTIwJTIwJTIwJTIwJTIwJTIwJTNDcm9vdCUzRSUwQSUyMCUyMCUyMCUyMCUyMCUyMCUyMCUyMCUzQ214Q2VsbCUyMGlkJTNEJTIyMCUyMiUyMCUyRiUzRSUwQSUyMCUyMCUyMCUyMCUyMCUyMCUyMCUyMCUzQ214Q2VsbCUyMGlkJTNEJTIyMSUyMiUyMHBhcmVudCUzRCUyMjAlMjIlMjAlMkYlM0UlMEElMjAlMjAlMjAlMjAlMjAlMjAlMjAlMjAlM0NteENlbGwlMjBpZCUzRCUyMm9LdTFmV2VPZDU3LUxET3I1clJvLTElMjIlMjB2YWx1ZSUzRCUyMkRBU1QlMjIlMjBzdHlsZSUzRCUyMnN3aW1sYW5lJTNCd2hpdGVTcGFjZSUzRHdyYXAlM0JodG1sJTNEMSUzQmZpbGxDb2xvciUzRCUyM2RhZThmYyUzQnN0cm9rZUNvbG9yJTNEJTIzNmM4ZWJmJTNCJTIyJTIwdmVydGV4JTNEJTIyMSUyMiUyMHBhcmVudCUzRCUyMjElMjIlM0UlMEElMjAlMjAlMjAlMjAlMjAlMjAlMjAlMjAlMjAlMjAlM0NteEdlb21ldHJ5JTIweCUzRCUyMi0yJTIyJTIweSUzRCUyMjE1MCUyMiUyMHdpZHRoJTNEJTIyMTAwMCUyMiUyMGhlaWdodCUzRCUyMjQwMCUyMiUyMGFzJTNEJTIyZ2VvbWV0cnklMjIlMjAlMkYlM0UlMEElMjAlMjAlMjAlMjAlMjAlMjAlMjAlMjAlM0MlMkZteENlbGwlM0UlMEElMjAlMjAlMjAlMjAlMjAlMjAlMjAlMjAlM0NteENlbGwlMjBpZCUzRCUyMm9LdTFmV2VPZDU3LUxET3I1clJvLTIlMjIlMjB2YWx1ZSUzRCUyMiUyNmx0JTNCYiUyNmd0JTNCV0FTVCUyNmx0JTNCJTJGYiUyNmd0JTNCJTIyJTIwc3R5bGUlM0QlMjJzd2ltbGFuZSUzQndoaXRlU3BhY2UlM0R3cmFwJTNCaHRtbCUzRDElM0Jmb250U3R5bGUlM0QwJTNCZmlsbENvbG9yJTNEJTIzZGFlOGZjJTNCc3Ryb2tlQ29sb3IlM0QlMjM2YzhlYmYlM0IlMjIlMjB2ZXJ0ZXglM0QlMjIxJTIyJTIwcGFyZW50JTNEJTIyb0t1MWZXZU9kNTctTERPcjVyUm8tMSUyMiUzRSUwQSUyMCUyMCUyMCUyMCUyMCUyMCUyMCUyMCUyMCUyMCUzQ214R2VvbWV0cnklMjB4JTNEJTIyNDAlMjIlMjB5JTNEJTIyNDAlMjIlMjB3aWR0aCUzRCUyMjQwMCUyMiUyMGhlaWdodCUzRCUyMjMyMCUyMiUyMGFzJTNEJTIyZ2VvbWV0cnklMjIlMjAlMkYlM0UlMEElMjAlMjAlMjAlMjAlMjAlMjAlMjAlMjAlM0MlMkZteENlbGwlM0UlMEElMjAlMjAlMjAlMjAlMjAlMjAlMjAlMjAlM0NteENlbGwlMjBpZCUzRCUyMm9LdTFmV2VPZDU3LUxET3I1clJvLTQlMjIlMjB2YWx1ZSUzRCUyMiUyMiUyMHN0eWxlJTNEJTIycm91bmRlZCUzRDElM0J3aGl0ZVNwYWNlJTNEd3JhcCUzQmh0bWwlM0QxJTNCZmlsbENvbG9yJTNEJTIzZGFlOGZjJTNCc3Ryb2tlQ29sb3IlM0QlMjM2YzhlYmYlM0IlMjIlMjB2ZXJ0ZXglM0QlMjIxJTIyJTIwcGFyZW50JTNEJTIyb0t1MWZXZU9kNTctTERPcjVyUm8tMiUyMiUzRSUwQSUyMCUyMCUyMCUyMCUyMCUyMCUyMCUyMCUyMCUyMCUzQ214R2VvbWV0cnklMjB4JTNEJTIyMjAlMjIlMjB5JTNEJTIyODAlMjIlMjB3aWR0aCUzRCUyMjEwMCUyMiUyMGhlaWdodCUzRCUyMjEyMCUyMiUyMGFzJTNEJTIyZ2VvbWV0cnklMjIlMjAlMkYlM0UlMEElMjAlMjAlMjAlMjAlMjAlMjAlMjAlMjAlM0MlMkZteENlbGwlM0UlMEElMjAlMjAlMjAlMjAlMjAlMjAlMjAlMjAlM0NteENlbGwlMjBpZCUzRCUyMm9LdTFmV2VPZDU3LUxET3I1clJvLTUlMjIlMjB2YWx1ZSUzRCUyMldBU1QlMjBrb21wb25lbnRhJTIyJTIwc3R5bGUlM0QlMjJ0ZXh0JTNCaHRtbCUzRDElM0JzdHJva2VDb2xvciUzRG5vbmUlM0JmaWxsQ29sb3IlM0Rub25lJTNCYWxpZ24lM0RjZW50ZXIlM0J2ZXJ0aWNhbEFsaWduJTNEbWlkZGxlJTNCd2hpdGVTcGFjZSUzRHdyYXAlM0Jyb3VuZGVkJTNEMCUzQmZvbnRTdHlsZSUzRDElM0Jmb250U2l6ZSUzRDE0JTNCJTIyJTIwdmVydGV4JTNEJTIyMSUyMiUyMHBhcmVudCUzRCUyMm9LdTFmV2VPZDU3LUxET3I1clJvLTIlMjIlM0UlMEElMjAlMjAlMjAlMjAlMjAlMjAlMjAlMjAlMjAlMjAlM0NteEdlb21ldHJ5JTIweCUzRCUyMjMwJTIyJTIweSUzRCUyMjExNSUyMiUyMHdpZHRoJTNEJTIyODAlMjIlMjBoZWlnaHQlM0QlMjI1MCUyMiUyMGFzJTNEJTIyZ2VvbWV0cnklMjIlMjAlMkYlM0UlMEElMjAlMjAlMjAlMjAlMjAlMjAlMjAlMjAlM0MlMkZteENlbGwlM0UlMEElMjAlMjAlMjAlMjAlMjAlMjAlMjAlMjAlM0NteENlbGwlMjBpZCUzRCUyMm9LdTFmV2VPZDU3LUxET3I1clJvLTYlMjIlMjB2YWx1ZSUzRCUyMiUyMiUyMHN0eWxlJTNEJTIycm91bmRlZCUzRDElM0J3aGl0ZVNwYWNlJTNEd3JhcCUzQmh0bWwlM0QxJTNCZmlsbENvbG9yJTNEJTIzZmZmMmNjJTNCc3Ryb2tlQ29sb3IlM0QlMjNkNmI2NTYlM0IlMjIlMjB2ZXJ0ZXglM0QlMjIxJTIyJTIwcGFyZW50JTNEJTIyb0t1MWZXZU9kNTctTERPcjVyUm8tMiUyMiUzRSUwQSUyMCUyMCUyMCUyMCUyMCUyMCUyMCUyMCUyMCUyMCUzQ214R2VvbWV0cnklMjB4JTNEJTIyMjgwJTIyJTIweSUzRCUyMjgwJTIyJTIwd2lkdGglM0QlMjIxMDAlMjIlMjBoZWlnaHQlM0QlMjIxMjAlMjIlMjBhcyUzRCUyMmdlb21ldHJ5JTIyJTIwJTJGJTNFJTBBJTIwJTIwJTIwJTIwJTIwJTIwJTIwJTIwJTNDJTJGbXhDZWxsJTNFJTBBJTIwJTIwJTIwJTIwJTIwJTIwJTIwJTIwJTNDbXhDZWxsJTIwaWQlM0QlMjJvS3UxZldlT2Q1Ny1MRE9yNXJSby03JTIyJTIwdmFsdWUlM0QlMjIlMjZsdCUzQmIlMjBzdHlsZSUzRCUyNnF1b3QlM0Jmb250LXNpemUlM0ElMjAxNHB4JTNCJTI2cXVvdCUzQiUyNmd0JTNCQ2lsam5hJTIwYXBsaWthY2lqYSUyNmx0JTNCYnIlMjZndCUzQiUyNmx0JTNCJTJGYiUyNmd0JTNCJTIyJTIwc3R5bGUlM0QlMjJ0ZXh0JTNCaHRtbCUzRDElM0JzdHJva2VDb2xvciUzRG5vbmUlM0JmaWxsQ29sb3IlM0Rub25lJTNCYWxpZ24lM0RjZW50ZXIlM0J2ZXJ0aWNhbEFsaWduJTNEbWlkZGxlJTNCd2hpdGVTcGFjZSUzRHdyYXAlM0Jyb3VuZGVkJTNEMCUzQiUyMiUyMHZlcnRleCUzRCUyMjElMjIlMjBwYXJlbnQlM0QlMjJvS3UxZldlT2Q1Ny1MRE9yNXJSby0yJTIyJTNFJTBBJTIwJTIwJTIwJTIwJTIwJTIwJTIwJTIwJTIwJTIwJTNDbXhHZW9tZXRyeSUyMHglM0QlMjIzMDAlMjIlMjB5JTNEJTIyMTI1JTIyJTIwd2lkdGglM0QlMjI2MCUyMiUyMGhlaWdodCUzRCUyMjMwJTIyJTIwYXMlM0QlMjJnZW9tZXRyeSUyMiUyMCUyRiUzRSUwQSUyMCUyMCUyMCUyMCUyMCUyMCUyMCUyMCUzQyUyRm14Q2VsbCUzRSUwQSUyMCUyMCUyMCUyMCUyMCUyMCUyMCUyMCUzQ214Q2VsbCUyMGlkJTNEJTIyb0t1MWZXZU9kNTctTERPcjVyUm8tOCUyMiUyMHZhbHVlJTNEJTIyJTIyJTIwc3R5bGUlM0QlMjJlbmRBcnJvdyUzRGNsYXNzaWMlM0JodG1sJTNEMSUzQnJvdW5kZWQlM0QwJTNCZW50cnlYJTNEMCUzQmVudHJ5WSUzRDAuMTY3JTNCZW50cnlEeCUzRDAlM0JlbnRyeUR5JTNEMCUzQmVudHJ5UGVyaW1ldGVyJTNEMCUzQmV4aXRYJTNEMSUzQmV4aXRZJTNEMC4xNjclM0JleGl0RHglM0QwJTNCZXhpdER5JTNEMCUzQmV4aXRQZXJpbWV0ZXIlM0QwJTNCJTIyJTIwZWRnZSUzRCUyMjElMjIlMjBwYXJlbnQlM0QlMjJvS3UxZldlT2Q1Ny1MRE9yNXJSby0yJTIyJTIwc291cmNlJTNEJTIyb0t1MWZXZU9kNTctTERPcjVyUm8tNCUyMiUyMHRhcmdldCUzRCUyMm9LdTFmV2VPZDU3LUxET3I1clJvLTYlMjIlM0UlMEElMjAlMjAlMjAlMjAlMjAlMjAlMjAlMjAlMjAlMjAlM0NteEdlb21ldHJ5JTIwd2lkdGglM0QlMjI1MCUyMiUyMGhlaWdodCUzRCUyMjUwJTIyJTIwcmVsYXRpdmUlM0QlMjIxJTIyJTIwYXMlM0QlMjJnZW9tZXRyeSUyMiUzRSUwQSUyMCUyMCUyMCUyMCUyMCUyMCUyMCUyMCUyMCUyMCUyMCUyMCUzQ214UG9pbnQlMjB4JTNEJTIyMTQwJTIyJTIweSUzRCUyMjEwMCUyMiUyMGFzJTNEJTIyc291cmNlUG9pbnQlMjIlMjAlMkYlM0UlMEElMjAlMjAlMjAlMjAlMjAlMjAlMjAlMjAlMjAlMjAlMjAlMjAlM0NteFBvaW50JTIweCUzRCUyMjIyMCUyMiUyMHklM0QlMjIxMDAlMjIlMjBhcyUzRCUyMnRhcmdldFBvaW50JTIyJTIwJTJGJTNFJTBBJTIwJTIwJTIwJTIwJTIwJTIwJTIwJTIwJTIwJTIwJTNDJTJGbXhHZW9tZXRyeSUzRSUwQSUyMCUyMCUyMCUyMCUyMCUyMCUyMCUyMCUzQyUyRm14Q2VsbCUzRSUwQSUyMCUyMCUyMCUyMCUyMCUyMCUyMCUyMCUzQ214Q2VsbCUyMGlkJTNEJTIyb0t1MWZXZU9kNTctTERPcjVyUm8tOSUyMiUyMHZhbHVlJTNEJTIyJTIyJTIwc3R5bGUlM0QlMjJlbmRBcnJvdyUzRGNsYXNzaWMlM0JodG1sJTNEMSUzQnJvdW5kZWQlM0QwJTNCZW50cnlYJTNELTAuMDAyJTNCZW50cnlZJTNEMC42MjUlM0JlbnRyeUR4JTNEMCUzQmVudHJ5RHklM0QwJTNCZW50cnlQZXJpbWV0ZXIlM0QwJTNCZXhpdFglM0QwLjk5NyUzQmV4aXRZJTNEMC42MjQlM0JleGl0RHglM0QwJTNCZXhpdER5JTNEMCUzQmV4aXRQZXJpbWV0ZXIlM0QwJTNCJTIyJTIwZWRnZSUzRCUyMjElMjIlMjBwYXJlbnQlM0QlMjJvS3UxZldlT2Q1Ny1MRE9yNXJSby0yJTIyJTIwc291cmNlJTNEJTIyb0t1MWZXZU9kNTctTERPcjVyUm8tNCUyMiUyMHRhcmdldCUzRCUyMm9LdTFmV2VPZDU3LUxET3I1clJvLTYlMjIlM0UlMEElMjAlMjAlMjAlMjAlMjAlMjAlMjAlMjAlMjAlMjAlM0NteEdlb21ldHJ5JTIwd2lkdGglM0QlMjI1MCUyMiUyMGhlaWdodCUzRCUyMjUwJTIyJTIwcmVsYXRpdmUlM0QlMjIxJTIyJTIwYXMlM0QlMjJnZW9tZXRyeSUyMiUzRSUwQSUyMCUyMCUyMCUyMCUyMCUyMCUyMCUyMCUyMCUyMCUyMCUyMCUzQ214UG9pbnQlMjB4JTNEJTIyMTQwJTIyJTIweSUzRCUyMjE1NSUyMiUyMGFzJTNEJTIyc291cmNlUG9pbnQlMjIlMjAlMkYlM0UlMEElMjAlMjAlMjAlMjAlMjAlMjAlMjAlMjAlMjAlMjAlMjAlMjAlM0NteFBvaW50JTIweCUzRCUyMjIyMCUyMiUyMHklM0QlMjIxNTUlMjIlMjBhcyUzRCUyMnRhcmdldFBvaW50JTIyJTIwJTJGJTNFJTBBJTIwJTIwJTIwJTIwJTIwJTIwJTIwJTIwJTIwJTIwJTNDJTJGbXhHZW9tZXRyeSUzRSUwQSUyMCUyMCUyMCUyMCUyMCUyMCUyMCUyMCUzQyUyRm14Q2VsbCUzRSUwQSUyMCUyMCUyMCUyMCUyMCUyMCUyMCUyMCUzQ214Q2VsbCUyMGlkJTNEJTIyb0t1MWZXZU9kNTctTERPcjVyUm8tMTAlMjIlMjB2YWx1ZSUzRCUyMiUyMiUyMHN0eWxlJTNEJTIyZW5kQXJyb3clM0RjbGFzc2ljJTNCaHRtbCUzRDElM0Jyb3VuZGVkJTNEMCUzQmVudHJ5WCUzRDElM0JlbnRyeVklM0QwLjgzMyUzQmVudHJ5RHglM0QwJTNCZW50cnlEeSUzRDAlM0JlbnRyeVBlcmltZXRlciUzRDAlM0JleGl0WCUzRDAuMDAyJTNCZXhpdFklM0QwLjgzNCUzQmV4aXREeCUzRDAlM0JleGl0RHklM0QwJTNCZXhpdFBlcmltZXRlciUzRDAlM0Jmb250Q29sb3IlM0QlMjNDRjAwMDAlM0JsYWJlbEJvcmRlckNvbG9yJTNEJTIzQ0YwMDAwJTNCbGFiZWxCYWNrZ3JvdW5kQ29sb3IlM0QlMjNDRjAwMDAlM0IlMjIlMjBlZGdlJTNEJTIyMSUyMiUyMHBhcmVudCUzRCUyMm9LdTFmV2VPZDU3LUxET3I1clJvLTIlMjIlMjBzb3VyY2UlM0QlMjJvS3UxZldlT2Q1Ny1MRE9yNXJSby02JTIyJTIwdGFyZ2V0JTNEJTIyb0t1MWZXZU9kNTctTERPcjVyUm8tNCUyMiUzRSUwQSUyMCUyMCUyMCUyMCUyMCUyMCUyMCUyMCUyMCUyMCUzQ214R2VvbWV0cnklMjB3aWR0aCUzRCUyMjUwJTIyJTIwaGVpZ2h0JTNEJTIyNTAlMjIlMjByZWxhdGl2ZSUzRCUyMjElMjIlMjBhcyUzRCUyMmdlb21ldHJ5JTIyJTNFJTBBJTIwJTIwJTIwJTIwJTIwJTIwJTIwJTIwJTIwJTIwJTIwJTIwJTNDbXhQb2ludCUyMHglM0QlMjIyNDAuMDAwMDAwMDAwMDAwMSUyMiUyMHklM0QlMjIxODAlMjIlMjBhcyUzRCUyMnNvdXJjZVBvaW50JTIyJTIwJTJGJTNFJTBBJTIwJTIwJTIwJTIwJTIwJTIwJTIwJTIwJTIwJTIwJTIwJTIwJTNDbXhQb2ludCUyMHglM0QlMjIxNjAuMDAwMDAwMDAwMDAwMSUyMiUyMHklM0QlMjIxODAlMjIlMjBhcyUzRCUyMnRhcmdldFBvaW50JTIyJTIwJTJGJTNFJTBBJTIwJTIwJTIwJTIwJTIwJTIwJTIwJTIwJTIwJTIwJTNDJTJGbXhHZW9tZXRyeSUzRSUwQSUyMCUyMCUyMCUyMCUyMCUyMCUyMCUyMCUzQyUyRm14Q2VsbCUzRSUwQSUyMCUyMCUyMCUyMCUyMCUyMCUyMCUyMCUzQ214Q2VsbCUyMGlkJTNEJTIyb0t1MWZXZU9kNTctTERPcjVyUm8tMTElMjIlMjB2YWx1ZSUzRCUyMiUyMiUyMHN0eWxlJTNEJTIyZW5kQXJyb3clM0RjbGFzc2ljJTNCaHRtbCUzRDElM0Jyb3VuZGVkJTNEMCUzQmVudHJ5WCUzRDEuMDAzJTNCZW50cnlZJTNEMC4zNzElM0JlbnRyeUR4JTNEMCUzQmVudHJ5RHklM0QwJTNCZW50cnlQZXJpbWV0ZXIlM0QwJTNCZXhpdFglM0QtMC4wMDIlM0JleGl0WSUzRDAuMzc0JTNCZXhpdER4JTNEMCUzQmV4aXREeSUzRDAlM0JleGl0UGVyaW1ldGVyJTNEMCUzQiUyMiUyMGVkZ2UlM0QlMjIxJTIyJTIwcGFyZW50JTNEJTIyb0t1MWZXZU9kNTctTERPcjVyUm8tMiUyMiUyMHNvdXJjZSUzRCUyMm9LdTFmV2VPZDU3LUxET3I1clJvLTYlMjIlMjB0YXJnZXQlM0QlMjJvS3UxZldlT2Q1Ny1MRE9yNXJSby00JTIyJTNFJTBBJTIwJTIwJTIwJTIwJTIwJTIwJTIwJTIwJTIwJTIwJTNDbXhHZW9tZXRyeSUyMHdpZHRoJTNEJTIyNTAlMjIlMjBoZWlnaHQlM0QlMjI1MCUyMiUyMHJlbGF0aXZlJTNEJTIyMSUyMiUyMGFzJTNEJTIyZ2VvbWV0cnklMjIlM0UlMEElMjAlMjAlMjAlMjAlMjAlMjAlMjAlMjAlMjAlMjAlMjAlMjAlM0NteFBvaW50JTIweCUzRCUyMjI1MC4wMDAwMDAwMDAwMDAxJTIyJTIweSUzRCUyMjEyNSUyMiUyMGFzJTNEJTIyc291cmNlUG9pbnQlMjIlMjAlMkYlM0UlMEElMjAlMjAlMjAlMjAlMjAlMjAlMjAlMjAlMjAlMjAlMjAlMjAlM0NteFBvaW50JTIweCUzRCUyMjE3MC4wMDAwMDAwMDAwMDAxJTIyJTIweSUzRCUyMjEyNSUyMiUyMGFzJTNEJTIydGFyZ2V0UG9pbnQlMjIlMjAlMkYlM0UlMEElMjAlMjAlMjAlMjAlMjAlMjAlMjAlMjAlMjAlMjAlM0MlMkZteEdlb21ldHJ5JTNFJTBBJTIwJTIwJTIwJTIwJTIwJTIwJTIwJTIwJTNDJTJGbXhDZWxsJTNFJTBBJTIwJTIwJTIwJTIwJTIwJTIwJTIwJTIwJTNDbXhDZWxsJTIwaWQlM0QlMjJvS3UxZldlT2Q1Ny1MRE9yNXJSby0xNCUyMiUyMHZhbHVlJTNEJTIyJTI2bHQlM0JiJTI2Z3QlM0IlMjZsdCUzQmklMjZndCUzQlNwaWRlciUyMHNjYW4lMjZsdCUzQiUyRmklMjZndCUzQiUyMHphaHRldiUyNmx0JTNCJTJGYiUyNmd0JTNCJTIyJTIwc3R5bGUlM0QlMjJ0ZXh0JTNCaHRtbCUzRDElM0JzdHJva2VDb2xvciUzRG5vbmUlM0JmaWxsQ29sb3IlM0Rub25lJTNCYWxpZ24lM0RjZW50ZXIlM0J2ZXJ0aWNhbEFsaWduJTNEbWlkZGxlJTNCd2hpdGVTcGFjZSUzRHdyYXAlM0Jyb3VuZGVkJTNEMCUzQiUyMiUyMHZlcnRleCUzRCUyMjElMjIlMjBwYXJlbnQlM0QlMjJvS3UxZldlT2Q1Ny1MRE9yNXJSby0yJTIyJTNFJTBBJTIwJTIwJTIwJTIwJTIwJTIwJTIwJTIwJTIwJTIwJTNDbXhHZW9tZXRyeSUyMHglM0QlMjIxMjAlMjIlMjB5JTNEJTIyNzUlMjIlMjB3aWR0aCUzRCUyMjEyMCUyMiUyMGhlaWdodCUzRCUyMjMwJTIyJTIwYXMlM0QlMjJnZW9tZXRyeSUyMiUyMCUyRiUzRSUwQSUyMCUyMCUyMCUyMCUyMCUyMCUyMCUyMCUzQyUyRm14Q2VsbCUzRSUwQSUyMCUyMCUyMCUyMCUyMCUyMCUyMCUyMCUzQ214Q2VsbCUyMGlkJTNEJTIyb0t1MWZXZU9kNTctTERPcjVyUm8tMTUlMjIlMjB2YWx1ZSUzRCUyMiUyNmx0JTNCYiUyNmd0JTNCJTI2bHQlM0JpJTI2Z3QlM0JTcGlkZXIlMjBzY2FuJTI2bHQlM0IlMkZpJTI2Z3QlM0IlMjBvZGdvdm9yJTI2bHQlM0IlMkZiJTI2Z3QlM0IlMjIlMjBzdHlsZSUzRCUyMnRleHQlM0JodG1sJTNEMSUzQnN0cm9rZUNvbG9yJTNEbm9uZSUzQmZpbGxDb2xvciUzRG5vbmUlM0JhbGlnbiUzRGNlbnRlciUzQnZlcnRpY2FsQWxpZ24lM0RtaWRkbGUlM0J3aGl0ZVNwYWNlJTNEd3JhcCUzQnJvdW5kZWQlM0QwJTNCJTIyJTIwdmVydGV4JTNEJTIyMSUyMiUyMHBhcmVudCUzRCUyMm9LdTFmV2VPZDU3LUxET3I1clJvLTIlMjIlM0UlMEElMjAlMjAlMjAlMjAlMjAlMjAlMjAlMjAlMjAlMjAlM0NteEdlb21ldHJ5JTIweCUzRCUyMjE1NiUyMiUyMHklM0QlMjIxMDAlMjIlMjB3aWR0aCUzRCUyMjEyMCUyMiUyMGhlaWdodCUzRCUyMjMwJTIyJTIwYXMlM0QlMjJnZW9tZXRyeSUyMiUyMCUyRiUzRSUwQSUyMCUyMCUyMCUyMCUyMCUyMCUyMCUyMCUzQyUyRm14Q2VsbCUzRSUwQSUyMCUyMCUyMCUyMCUyMCUyMCUyMCUyMCUzQ214Q2VsbCUyMGlkJTNEJTIyb0t1MWZXZU9kNTctTERPcjVyUm8tMjElMjIlMjB2YWx1ZSUzRCUyMiUyMiUyMHN0eWxlJTNEJTIyZW5kQXJyb3clM0RjbGFzc2ljJTNCaHRtbCUzRDElM0Jyb3VuZGVkJTNEMCUzQmV4aXRYJTNEMC41JTNCZXhpdFklM0QxJTNCZXhpdER4JTNEMCUzQmV4aXREeSUzRDAlM0JlbnRyeVglM0QtMC4wMTMlM0JlbnRyeVklM0QwLjY2OCUzQmVudHJ5RHglM0QwJTNCZW50cnlEeSUzRDAlM0JlbnRyeVBlcmltZXRlciUzRDAlM0IlMjIlMjBlZGdlJTNEJTIyMSUyMiUyMHBhcmVudCUzRCUyMm9LdTFmV2VPZDU3LUxET3I1clJvLTIlMjIlMjBzb3VyY2UlM0QlMjJvS3UxZldlT2Q1Ny1MRE9yNXJSby00JTIyJTNFJTBBJTIwJTIwJTIwJTIwJTIwJTIwJTIwJTIwJTIwJTIwJTNDbXhHZW9tZXRyeSUyMHdpZHRoJTNEJTIyNTAlMjIlMjBoZWlnaHQlM0QlMjI1MCUyMiUyMHJlbGF0aXZlJTNEJTIyMSUyMiUyMGFzJTNEJTIyZ2VvbWV0cnklMjIlM0UlMEElMjAlMjAlMjAlMjAlMjAlMjAlMjAlMjAlMjAlMjAlMjAlMjAlM0NteFBvaW50JTIweCUzRCUyMjE1MCUyMiUyMHklM0QlMjIyMDAlMjIlMjBhcyUzRCUyMnNvdXJjZVBvaW50JTIyJTIwJTJGJTNFJTBBJTIwJTIwJTIwJTIwJTIwJTIwJTIwJTIwJTIwJTIwJTIwJTIwJTNDbXhQb2ludCUyMHglM0QlMjIyMDkuMjIwMDAwMDAwMDAwMDMlMjIlMjB5JTNEJTIyMjcwLjElMjIlMjBhcyUzRCUyMnRhcmdldFBvaW50JTIyJTIwJTJGJTNFJTBBJTIwJTIwJTIwJTIwJTIwJTIwJTIwJTIwJTIwJTIwJTIwJTIwJTNDQXJyYXklMjBhcyUzRCUyMnBvaW50cyUyMiUzRSUwQSUyMCUyMCUyMCUyMCUyMCUyMCUyMCUyMCUyMCUyMCUyMCUyMCUyMCUyMCUzQ214UG9pbnQlMjB4JTNEJTIyNzAlMjIlMjB5JTNEJTIyMjcwJTIyJTIwJTJGJTNFJTBBJTIwJTIwJTIwJTIwJTIwJTIwJTIwJTIwJTIwJTIwJTIwJTIwJTNDJTJGQXJyYXklM0UlMEElMjAlMjAlMjAlMjAlMjAlMjAlMjAlMjAlMjAlMjAlM0MlMkZteEdlb21ldHJ5JTNFJTBBJTIwJTIwJTIwJTIwJTIwJTIwJTIwJTIwJTNDJTJGbXhDZWxsJTNFJTBBJTIwJTIwJTIwJTIwJTIwJTIwJTIwJTIwJTNDbXhDZWxsJTIwaWQlM0QlMjJvS3UxZldlT2Q1Ny1MRE9yNXJSby0yMiUyMiUyMHZhbHVlJTNEJTIyJTI2bHQlM0JiJTI2Z3QlM0JHZW5lcmlzYW5qZSUyMGl6dmUlQzUlQTF0YWphJTI2bHQlM0IlMkZiJTI2Z3QlM0IlMjIlMjBzdHlsZSUzRCUyMnRleHQlM0JodG1sJTNEMSUzQnN0cm9rZUNvbG9yJTNEbm9uZSUzQmZpbGxDb2xvciUzRG5vbmUlM0JhbGlnbiUzRGNlbnRlciUzQnZlcnRpY2FsQWxpZ24lM0RtaWRkbGUlM0J3aGl0ZVNwYWNlJTNEd3JhcCUzQnJvdW5kZWQlM0QwJTNCJTIyJTIwdmVydGV4JTNEJTIyMSUyMiUyMHBhcmVudCUzRCUyMm9LdTFmV2VPZDU3LUxET3I1clJvLTIlMjIlM0UlMEElMjAlMjAlMjAlMjAlMjAlMjAlMjAlMjAlMjAlMjAlM0NteEdlb21ldHJ5JTIweCUzRCUyMjcyJTIyJTIweSUzRCUyMjI0Ni41JTIyJTIwd2lkdGglM0QlMjIxMjglMjIlMjBoZWlnaHQlM0QlMjIyNy41JTIyJTIwYXMlM0QlMjJnZW9tZXRyeSUyMiUyMCUyRiUzRSUwQSUyMCUyMCUyMCUyMCUyMCUyMCUyMCUyMCUzQyUyRm14Q2VsbCUzRSUwQSUyMCUyMCUyMCUyMCUyMCUyMCUyMCUyMCUzQ214Q2VsbCUyMGlkJTNEJTIyb0t1MWZXZU9kNTctTERPcjVyUm8tMjMlMjIlMjB2YWx1ZSUzRCUyMiUyMiUyMHN0eWxlJTNEJTIyc2hhcGUlM0Rub3RlJTNCd2hpdGVTcGFjZSUzRHdyYXAlM0JodG1sJTNEMSUzQmJhY2tncm91bmRPdXRsaW5lJTNEMSUzQmRhcmtPcGFjaXR5JTNEMC4wNSUzQmZsaXBIJTNEMSUzQiUyMiUyMHZlcnRleCUzRCUyMjElMjIlMjBwYXJlbnQlM0QlMjJvS3UxZldlT2Q1Ny1MRE9yNXJSby0yJTIyJTNFJTBBJTIwJTIwJTIwJTIwJTIwJTIwJTIwJTIwJTIwJTIwJTNDbXhHZW9tZXRyeSUyMHglM0QlMjIyMTAlMjIlMjB5JTNEJTIyMjMwJTIyJTIwd2lkdGglM0QlMjI2MCUyMiUyMGhlaWdodCUzRCUyMjcwJTIyJTIwYXMlM0QlMjJnZW9tZXRyeSUyMiUyMCUyRiUzRSUwQSUyMCUyMCUyMCUyMCUyMCUyMCUyMCUyMCUzQyUyRm14Q2VsbCUzRSUwQSUyMCUyMCUyMCUyMCUyMCUyMCUyMCUyMCUzQ214Q2VsbCUyMGlkJTNEJTIyb0t1MWZXZU9kNTctTERPcjVyUm8tMyUyMiUyMHZhbHVlJTNEJTIyU0FTJTIyJTIwc3R5bGUlM0QlMjJzd2ltbGFuZSUzQndoaXRlU3BhY2UlM0R3cmFwJTNCaHRtbCUzRDElM0JmaWxsQ29sb3IlM0QlMjNkYWU4ZmMlM0JzdHJva2VDb2xvciUzRCUyMzZjOGViZiUzQiUyMiUyMHZlcnRleCUzRCUyMjElMjIlMjBwYXJlbnQlM0QlMjJvS3UxZldlT2Q1Ny1MRE9yNXJSby0xJTIyJTNFJTBBJTIwJTIwJTIwJTIwJTIwJTIwJTIwJTIwJTIwJTIwJTNDbXhHZW9tZXRyeSUyMHglM0QlMjI0ODAlMjIlMjB5JTNEJTIyNDAlMjIlMjB3aWR0aCUzRCUyMjQ4MCUyMiUyMGhlaWdodCUzRCUyMjMyMCUyMiUyMGFzJTNEJTIyZ2VvbWV0cnklMjIlMjAlMkYlM0UlMEElMjAlMjAlMjAlMjAlMjAlMjAlMjAlMjAlM0MlMkZteENlbGwlM0UlMEElMjAlMjAlMjAlMjAlMjAlMjAlMjAlMjAlM0NteENlbGwlMjBpZCUzRCUyMm9LdTFmV2VPZDU3LUxET3I1clJvLTI0JTIyJTIwdmFsdWUlM0QlMjIlMjIlMjBzdHlsZSUzRCUyMnJvdW5kZWQlM0QxJTNCd2hpdGVTcGFjZSUzRHdyYXAlM0JodG1sJTNEMSUzQmZpbGxDb2xvciUzRCUyM2RhZThmYyUzQnN0cm9rZUNvbG9yJTNEJTIzNmM4ZWJmJTNCJTIyJTIwdmVydGV4JTNEJTIyMSUyMiUyMHBhcmVudCUzRCUyMm9LdTFmV2VPZDU3LUxET3I1clJvLTMlMjIlM0UlMEElMjAlMjAlMjAlMjAlMjAlMjAlMjAlMjAlMjAlMjAlM0NteEdlb21ldHJ5JTIweCUzRCUyMjE1JTIyJTIweSUzRCUyMjgwJTIyJTIwd2lkdGglM0QlMjIxMDAlMjIlMjBoZWlnaHQlM0QlMjIxMjAlMjIlMjBhcyUzRCUyMmdlb21ldHJ5JTIyJTIwJTJGJTNFJTBBJTIwJTIwJTIwJTIwJTIwJTIwJTIwJTIwJTNDJTJGbXhDZWxsJTNFJTBBJTIwJTIwJTIwJTIwJTIwJTIwJTIwJTIwJTNDbXhDZWxsJTIwaWQlM0QlMjJvS3UxZldlT2Q1Ny1MRE9yNXJSby0yNSUyMiUyMHZhbHVlJTNEJTIyJTIyJTIwc3R5bGUlM0QlMjJyb3VuZGVkJTNEMSUzQndoaXRlU3BhY2UlM0R3cmFwJTNCaHRtbCUzRDElM0JmaWxsQ29sb3IlM0QlMjNmZmYyY2MlM0JzdHJva2VDb2xvciUzRCUyM2Q2YjY1NiUzQiUyMiUyMHZlcnRleCUzRCUyMjElMjIlMjBwYXJlbnQlM0QlMjJvS3UxZldlT2Q1Ny1MRE9yNXJSby0zJTIyJTNFJTBBJTIwJTIwJTIwJTIwJTIwJTIwJTIwJTIwJTIwJTIwJTNDbXhHZW9tZXRyeSUyMHglM0QlMjIzNjUlMjIlMjB5JTNEJTIyODAlMjIlMjB3aWR0aCUzRCUyMjEwMCUyMiUyMGhlaWdodCUzRCUyMjEyMCUyMiUyMGFzJTNEJTIyZ2VvbWV0cnklMjIlMjAlMkYlM0UlMEElMjAlMjAlMjAlMjAlMjAlMjAlMjAlMjAlM0MlMkZteENlbGwlM0UlMEElMjAlMjAlMjAlMjAlMjAlMjAlMjAlMjAlM0NteENlbGwlMjBpZCUzRCUyMm9LdTFmV2VPZDU3LUxET3I1clJvLTI2JTIyJTIwdmFsdWUlM0QlMjIlMjZsdCUzQmIlMjBzdHlsZSUzRCUyNnF1b3QlM0Jmb250LXNpemUlM0ElMjAxNHB4JTNCJTI2cXVvdCUzQiUyNmd0JTNCQ2lsam5hJTIwYXBsaWthY2lqYSUyNmx0JTNCYnIlMjZndCUzQiUyNmx0JTNCJTJGYiUyNmd0JTNCJTIyJTIwc3R5bGUlM0QlMjJ0ZXh0JTNCaHRtbCUzRDElM0JzdHJva2VDb2xvciUzRG5vbmUlM0JmaWxsQ29sb3IlM0Rub25lJTNCYWxpZ24lM0RjZW50ZXIlM0J2ZXJ0aWNhbEFsaWduJTNEbWlkZGxlJTNCd2hpdGVTcGFjZSUzRHdyYXAlM0Jyb3VuZGVkJTNEMCUzQiUyMiUyMHZlcnRleCUzRCUyMjElMjIlMjBwYXJlbnQlM0QlMjJvS3UxZldlT2Q1Ny1MRE9yNXJSby0zJTIyJTNFJTBBJTIwJTIwJTIwJTIwJTIwJTIwJTIwJTIwJTIwJTIwJTNDbXhHZW9tZXRyeSUyMHglM0QlMjIzODUlMjIlMjB5JTNEJTIyMTI1JTIyJTIwd2lkdGglM0QlMjI2MCUyMiUyMGhlaWdodCUzRCUyMjMwJTIyJTIwYXMlM0QlMjJnZW9tZXRyeSUyMiUyMCUyRiUzRSUwQSUyMCUyMCUyMCUyMCUyMCUyMCUyMCUyMCUzQyUyRm14Q2VsbCUzRSUwQSUyMCUyMCUyMCUyMCUyMCUyMCUyMCUyMCUzQ214Q2VsbCUyMGlkJTNEJTIyb0t1MWZXZU9kNTctTERPcjVyUm8tMjclMjIlMjB2YWx1ZSUzRCUyMiUyNmx0JTNCZm9udCUyMHN0eWxlJTNEJTI2cXVvdCUzQmZvbnQtc2l6ZSUzQSUyMDE0cHglM0IlMjZxdW90JTNCJTI2Z3QlM0IlMjZsdCUzQmIlMjZndCUzQiUyNmx0JTNCaSUyNmd0JTNCUmVxdWVzdCUyMCUyNmx0JTNCJTJGaSUyNmd0JTNCa29tcG9uZW50YSUyNmx0JTNCJTJGYiUyNmd0JTNCJTI2bHQlM0IlMkZmb250JTI2Z3QlM0IlMjIlMjBzdHlsZSUzRCUyMnRleHQlM0JodG1sJTNEMSUzQnN0cm9rZUNvbG9yJTNEbm9uZSUzQmZpbGxDb2xvciUzRG5vbmUlM0JhbGlnbiUzRGNlbnRlciUzQnZlcnRpY2FsQWxpZ24lM0RtaWRkbGUlM0J3aGl0ZVNwYWNlJTNEd3JhcCUzQnJvdW5kZWQlM0QwJTNCJTIyJTIwdmVydGV4JTNEJTIyMSUyMiUyMHBhcmVudCUzRCUyMm9LdTFmV2VPZDU3LUxET3I1clJvLTMlMjIlM0UlMEElMjAlMjAlMjAlMjAlMjAlMjAlMjAlMjAlMjAlMjAlM0NteEdlb21ldHJ5JTIweCUzRCUyMjMwJTIyJTIweSUzRCUyMjEyMCUyMiUyMHdpZHRoJTNEJTIyNzAlMjIlMjBoZWlnaHQlM0QlMjI0MCUyMiUyMGFzJTNEJTIyZ2VvbWV0cnklMjIlMjAlMkYlM0UlMEElMjAlMjAlMjAlMjAlMjAlMjAlMjAlMjAlM0MlMkZteENlbGwlM0UlMEElMjAlMjAlMjAlMjAlMjAlMjAlMjAlMjAlM0NteENlbGwlMjBpZCUzRCUyMm9LdTFmV2VPZDU3LUxET3I1clJvLTI4JTIyJTIwdmFsdWUlM0QlMjIlMjIlMjBzdHlsZSUzRCUyMnJvdW5kZWQlM0QxJTNCd2hpdGVTcGFjZSUzRHdyYXAlM0JodG1sJTNEMSUzQmZpbGxDb2xvciUzRCUyM2UxZDVlNyUzQnN0cm9rZUNvbG9yJTNEJTIzOTY3M2E2JTNCJTIyJTIwdmVydGV4JTNEJTIyMSUyMiUyMHBhcmVudCUzRCUyMm9LdTFmV2VPZDU3LUxET3I1clJvLTMlMjIlM0UlMEElMjAlMjAlMjAlMjAlMjAlMjAlMjAlMjAlMjAlMjAlM0NteEdlb21ldHJ5JTIweCUzRCUyMjE5MCUyMiUyMHklM0QlMjI4MCUyMiUyMHdpZHRoJTNEJTIyMTAwJTIyJTIwaGVpZ2h0JTNEJTIyMTIwJTIyJTIwYXMlM0QlMjJnZW9tZXRyeSUyMiUyMCUyRiUzRSUwQSUyMCUyMCUyMCUyMCUyMCUyMCUyMCUyMCUzQyUyRm14Q2VsbCUzRSUwQSUyMCUyMCUyMCUyMCUyMCUyMCUyMCUyMCUzQ214Q2VsbCUyMGlkJTNEJTIyb0t1MWZXZU9kNTctTERPcjVyUm8tMjklMjIlMjB2YWx1ZSUzRCUyMiUyNmx0JTNCYiUyMHN0eWxlJTNEJTI2cXVvdCUzQmZvbnQtc2l6ZSUzQSUyMDE0cHglM0IlMjZxdW90JTNCJTI2Z3QlM0IlMjZsdCUzQmklMjZndCUzQlByb3h5JTI2bHQlM0IlMkZpJTI2Z3QlM0IlMjBrb21wb25lbnRhJTI2bHQlM0IlMkZiJTI2Z3QlM0IlMjIlMjBzdHlsZSUzRCUyMnRleHQlM0JodG1sJTNEMSUzQnN0cm9rZUNvbG9yJTNEbm9uZSUzQmZpbGxDb2xvciUzRG5vbmUlM0JhbGlnbiUzRGNlbnRlciUzQnZlcnRpY2FsQWxpZ24lM0RtaWRkbGUlM0J3aGl0ZVNwYWNlJTNEd3JhcCUzQnJvdW5kZWQlM0QwJTNCJTIyJTIwdmVydGV4JTNEJTIyMSUyMiUyMHBhcmVudCUzRCUyMm9LdTFmV2VPZDU3LUxET3I1clJvLTMlMjIlM0UlMEElMjAlMjAlMjAlMjAlMjAlMjAlMjAlMjAlMjAlMjAlM0NteEdlb21ldHJ5JTIweCUzRCUyMjIxMCUyMiUyMHklM0QlMjIxMjAlMjIlMjB3aWR0aCUzRCUyMjYwJTIyJTIwaGVpZ2h0JTNEJTIyMzAlMjIlMjBhcyUzRCUyMmdlb21ldHJ5JTIyJTIwJTJGJTNFJTBBJTIwJTIwJTIwJTIwJTIwJTIwJTIwJTIwJTNDJTJGbXhDZWxsJTNFJTBBJTIwJTIwJTIwJTIwJTIwJTIwJTIwJTIwJTNDbXhDZWxsJTIwaWQlM0QlMjJvS3UxZldlT2Q1Ny1MRE9yNXJSby0zMCUyMiUyMHZhbHVlJTNEJTIyJTIyJTIwc3R5bGUlM0QlMjJlbmRBcnJvdyUzRGNsYXNzaWMlM0JodG1sJTNEMSUzQnJvdW5kZWQlM0QwJTNCZXhpdFglM0QwLjUlM0JleGl0WSUzRDElM0JleGl0RHglM0QwJTNCZXhpdER5JTNEMCUzQmVudHJ5WCUzRC0wLjAxMyUzQmVudHJ5WSUzRDAuNjY4JTNCZW50cnlEeCUzRDAlM0JlbnRyeUR5JTNEMCUzQmVudHJ5UGVyaW1ldGVyJTNEMCUzQiUyMiUyMGVkZ2UlM0QlMjIxJTIyJTIwcGFyZW50JTNEJTIyb0t1MWZXZU9kNTctTERPcjVyUm8tMyUyMiUzRSUwQSUyMCUyMCUyMCUyMCUyMCUyMCUyMCUyMCUyMCUyMCUzQ214R2VvbWV0cnklMjB3aWR0aCUzRCUyMjUwJTIyJTIwaGVpZ2h0JTNEJTIyNTAlMjIlMjByZWxhdGl2ZSUzRCUyMjElMjIlMjBhcyUzRCUyMmdlb21ldHJ5JTIyJTNFJTBBJTIwJTIwJTIwJTIwJTIwJTIwJTIwJTIwJTIwJTIwJTIwJTIwJTNDbXhQb2ludCUyMHglM0QlMjIyNDAlMjIlMjB5JTNEJTIyMjAwJTIyJTIwYXMlM0QlMjJzb3VyY2VQb2ludCUyMiUyMCUyRiUzRSUwQSUyMCUyMCUyMCUyMCUyMCUyMCUyMCUyMCUyMCUyMCUyMCUyMCUzQ214UG9pbnQlMjB4JTNEJTIyMzc5LjIyJTIyJTIweSUzRCUyMjI3MC4xJTIyJTIwYXMlM0QlMjJ0YXJnZXRQb2ludCUyMiUyMCUyRiUzRSUwQSUyMCUyMCUyMCUyMCUyMCUyMCUyMCUyMCUyMCUyMCUyMCUyMCUzQ0FycmF5JTIwYXMlM0QlMjJwb2ludHMlMjIlM0UlMEElMjAlMjAlMjAlMjAlMjAlMjAlMjAlMjAlMjAlMjAlMjAlMjAlMjAlMjAlM0NteFBvaW50JTIweCUzRCUyMjI0MCUyMiUyMHklM0QlMjIyNzAlMjIlMjAlMkYlM0UlMEElMjAlMjAlMjAlMjAlMjAlMjAlMjAlMjAlMjAlMjAlMjAlMjAlM0MlMkZBcnJheSUzRSUwQSUyMCUyMCUyMCUyMCUyMCUyMCUyMCUyMCUyMCUyMCUzQyUyRm14R2VvbWV0cnklM0UlMEElMjAlMjAlMjAlMjAlMjAlMjAlMjAlMjAlM0MlMkZteENlbGwlM0UlMEElMjAlMjAlMjAlMjAlMjAlMjAlMjAlMjAlM0NteENlbGwlMjBpZCUzRCUyMm9LdTFmV2VPZDU3LUxET3I1clJvLTMxJTIyJTIwdmFsdWUlM0QlMjIlMjZsdCUzQmIlMjZndCUzQkdlbmVyaXNhbmplJTIwaXp2ZSVDNSVBMXRhamElMjZsdCUzQiUyRmIlMjZndCUzQiUyMiUyMHN0eWxlJTNEJTIydGV4dCUzQmh0bWwlM0QxJTNCc3Ryb2tlQ29sb3IlM0Rub25lJTNCZmlsbENvbG9yJTNEbm9uZSUzQmFsaWduJTNEY2VudGVyJTNCdmVydGljYWxBbGlnbiUzRG1pZGRsZSUzQndoaXRlU3BhY2UlM0R3cmFwJTNCcm91bmRlZCUzRDAlM0IlMjIlMjB2ZXJ0ZXglM0QlMjIxJTIyJTIwcGFyZW50JTNEJTIyb0t1MWZXZU9kNTctTERPcjVyUm8tMyUyMiUzRSUwQSUyMCUyMCUyMCUyMCUyMCUyMCUyMCUyMCUyMCUyMCUzQ214R2VvbWV0cnklMjB4JTNEJTIyMjQyJTIyJTIweSUzRCUyMjI0Ni41JTIyJTIwd2lkdGglM0QlMjIxMjglMjIlMjBoZWlnaHQlM0QlMjIyNy41JTIyJTIwYXMlM0QlMjJnZW9tZXRyeSUyMiUyMCUyRiUzRSUwQSUyMCUyMCUyMCUyMCUyMCUyMCUyMCUyMCUzQyUyRm14Q2VsbCUzRSUwQSUyMCUyMCUyMCUyMCUyMCUyMCUyMCUyMCUzQ214Q2VsbCUyMGlkJTNEJTIyb0t1MWZXZU9kNTctTERPcjVyUm8tMzIlMjIlMjB2YWx1ZSUzRCUyMiUyMiUyMHN0eWxlJTNEJTIyc2hhcGUlM0Rub3RlJTNCd2hpdGVTcGFjZSUzRHdyYXAlM0JodG1sJTNEMSUzQmJhY2tncm91bmRPdXRsaW5lJTNEMSUzQmRhcmtPcGFjaXR5JTNEMC4wNSUzQmZsaXBIJTNEMSUzQiUyMiUyMHZlcnRleCUzRCUyMjElMjIlMjBwYXJlbnQlM0QlMjJvS3UxZldlT2Q1Ny1MRE9yNXJSby0zJTIyJTNFJTBBJTIwJTIwJTIwJTIwJTIwJTIwJTIwJTIwJTIwJTIwJTNDbXhHZW9tZXRyeSUyMHglM0QlMjIzODAlMjIlMjB5JTNEJTIyMjMwJTIyJTIwd2lkdGglM0QlMjI2MCUyMiUyMGhlaWdodCUzRCUyMjcwJTIyJTIwYXMlM0QlMjJnZW9tZXRyeSUyMiUyMCUyRiUzRSUwQSUyMCUyMCUyMCUyMCUyMCUyMCUyMCUyMCUzQyUyRm14Q2VsbCUzRSUwQSUyMCUyMCUyMCUyMCUyMCUyMCUyMCUyMCUzQ214Q2VsbCUyMGlkJTNEJTIyb0t1MWZXZU9kNTctTERPcjVyUm8tMzMlMjIlMjB2YWx1ZSUzRCUyMiUyMiUyMHN0eWxlJTNEJTIyZW5kQXJyb3clM0RjbGFzc2ljJTNCaHRtbCUzRDElM0Jyb3VuZGVkJTNEMCUzQmVudHJ5WCUzRDAlM0JlbnRyeVklM0QwLjI1JTNCZW50cnlEeCUzRDAlM0JlbnRyeUR5JTNEMCUzQmV4aXRYJTNEMSUzQmV4aXRZJTNEMC4yNSUzQmV4aXREeCUzRDAlM0JleGl0RHklM0QwJTNCJTIyJTIwZWRnZSUzRCUyMjElMjIlMjBwYXJlbnQlM0QlMjJvS3UxZldlT2Q1Ny1MRE9yNXJSby0zJTIyJTIwc291cmNlJTNEJTIyb0t1MWZXZU9kNTctTERPcjVyUm8tMjQlMjIlMjB0YXJnZXQlM0QlMjJvS3UxZldlT2Q1Ny1MRE9yNXJSby0yOCUyMiUzRSUwQSUyMCUyMCUyMCUyMCUyMCUyMCUyMCUyMCUyMCUyMCUzQ214R2VvbWV0cnklMjB3aWR0aCUzRCUyMjUwJTIyJTIwaGVpZ2h0JTNEJTIyNTAlMjIlMjByZWxhdGl2ZSUzRCUyMjElMjIlMjBhcyUzRCUyMmdlb21ldHJ5JTIyJTNFJTBBJTIwJTIwJTIwJTIwJTIwJTIwJTIwJTIwJTIwJTIwJTIwJTIwJTNDbXhQb2ludCUyMHglM0QlMjIxMjUlMjIlMjB5JTNEJTIyMTEwJTIyJTIwYXMlM0QlMjJzb3VyY2VQb2ludCUyMiUyMCUyRiUzRSUwQSUyMCUyMCUyMCUyMCUyMCUyMCUyMCUyMCUyMCUyMCUyMCUyMCUzQ214UG9pbnQlMjB4JTNEJTIyMTc1JTIyJTIweSUzRCUyMjYwJTIyJTIwYXMlM0QlMjJ0YXJnZXRQb2ludCUyMiUyMCUyRiUzRSUwQSUyMCUyMCUyMCUyMCUyMCUyMCUyMCUyMCUyMCUyMCUzQyUyRm14R2VvbWV0cnklM0UlMEElMjAlMjAlMjAlMjAlMjAlMjAlMjAlMjAlM0MlMkZteENlbGwlM0UlMEElMjAlMjAlMjAlMjAlMjAlMjAlMjAlMjAlM0NteENlbGwlMjBpZCUzRCUyMm9LdTFmV2VPZDU3LUxET3I1clJvLTM0JTIyJTIwdmFsdWUlM0QlMjIlMjIlMjBzdHlsZSUzRCUyMmVuZEFycm93JTNEY2xhc3NpYyUzQmh0bWwlM0QxJTNCcm91bmRlZCUzRDAlM0JlbnRyeVglM0QxJTNCZW50cnlZJTNEMC43NSUzQmVudHJ5RHglM0QwJTNCZW50cnlEeSUzRDAlM0IlMjIlMjBlZGdlJTNEJTIyMSUyMiUyMHBhcmVudCUzRCUyMm9LdTFmV2VPZDU3LUxET3I1clJvLTMlMjIlMjB0YXJnZXQlM0QlMjJvS3UxZldlT2Q1Ny1MRE9yNXJSby0yNCUyMiUzRSUwQSUyMCUyMCUyMCUyMCUyMCUyMCUyMCUyMCUyMCUyMCUzQ214R2VvbWV0cnklMjB3aWR0aCUzRCUyMjUwJTIyJTIwaGVpZ2h0JTNEJTIyNTAlMjIlMjByZWxhdGl2ZSUzRCUyMjElMjIlMjBhcyUzRCUyMmdlb21ldHJ5JTIyJTNFJTBBJTIwJTIwJTIwJTIwJTIwJTIwJTIwJTIwJTIwJTIwJTIwJTIwJTNDbXhQb2ludCUyMHglM0QlMjIxOTAlMjIlMjB5JTNEJTIyMTcwLjU1NTU1NTU1NTU1NTY2JTIyJTIwYXMlM0QlMjJzb3VyY2VQb2ludCUyMiUyMCUyRiUzRSUwQSUyMCUyMCUyMCUyMCUyMCUyMCUyMCUyMCUyMCUyMCUyMCUyMCUzQ214UG9pbnQlMjB4JTNEJTIyMTI1JTIyJTIweSUzRCUyMjE3MC41NTU1NTU1NTU1NTU2NiUyMiUyMGFzJTNEJTIydGFyZ2V0UG9pbnQlMjIlMjAlMkYlM0UlMEElMjAlMjAlMjAlMjAlMjAlMjAlMjAlMjAlMjAlMjAlM0MlMkZteEdlb21ldHJ5JTNFJTBBJTIwJTIwJTIwJTIwJTIwJTIwJTIwJTIwJTNDJTJGbXhDZWxsJTNFJTBBJTIwJTIwJTIwJTIwJTIwJTIwJTIwJTIwJTNDbXhDZWxsJTIwaWQlM0QlMjJvS3UxZldlT2Q1Ny1MRE9yNXJSby0zNSUyMiUyMHZhbHVlJTNEJTIyJTIyJTIwc3R5bGUlM0QlMjJlbmRBcnJvdyUzRGNsYXNzaWMlM0JodG1sJTNEMSUzQnJvdW5kZWQlM0QwJTNCZW50cnlYJTNELTAuMDAyJTNCZW50cnlZJTNEMC4yNTElM0JlbnRyeUR4JTNEMCUzQmVudHJ5RHklM0QwJTNCZW50cnlQZXJpbWV0ZXIlM0QwJTNCJTIyJTIwZWRnZSUzRCUyMjElMjIlMjBwYXJlbnQlM0QlMjJvS3UxZldlT2Q1Ny1MRE9yNXJSby0zJTIyJTIwdGFyZ2V0JTNEJTIyb0t1MWZXZU9kNTctTERPcjVyUm8tMjUlMjIlM0UlMEElMjAlMjAlMjAlMjAlMjAlMjAlMjAlMjAlMjAlMjAlM0NteEdlb21ldHJ5JTIwd2lkdGglM0QlMjI1MCUyMiUyMGhlaWdodCUzRCUyMjUwJTIyJTIwcmVsYXRpdmUlM0QlMjIxJTIyJTIwYXMlM0QlMjJnZW9tZXRyeSUyMiUzRSUwQSUyMCUyMCUyMCUyMCUyMCUyMCUyMCUyMCUyMCUyMCUyMCUyMCUzQ214UG9pbnQlMjB4JTNEJTIyMjkwJTIyJTIweSUzRCUyMjExMCUyMiUyMGFzJTNEJTIyc291cmNlUG9pbnQlMjIlMjAlMkYlM0UlMEElMjAlMjAlMjAlMjAlMjAlMjAlMjAlMjAlMjAlMjAlMjAlMjAlM0NteFBvaW50JTIweCUzRCUyMjM2MCUyMiUyMHklM0QlMjIxMTAlMjIlMjBhcyUzRCUyMnRhcmdldFBvaW50JTIyJTIwJTJGJTNFJTBBJTIwJTIwJTIwJTIwJTIwJTIwJTIwJTIwJTIwJTIwJTNDJTJGbXhHZW9tZXRyeSUzRSUwQSUyMCUyMCUyMCUyMCUyMCUyMCUyMCUyMCUzQyUyRm14Q2VsbCUzRSUwQSUyMCUyMCUyMCUyMCUyMCUyMCUyMCUyMCUzQ214Q2VsbCUyMGlkJTNEJTIyb0t1MWZXZU9kNTctTERPcjVyUm8tMzglMjIlMjB2YWx1ZSUzRCUyMiUyNmx0JTNCYiUyNmd0JTNCWmFodGV2JTI2bHQlM0IlMkZiJTI2Z3QlM0IlMjIlMjBzdHlsZSUzRCUyMnRleHQlM0JodG1sJTNEMSUzQnN0cm9rZUNvbG9yJTNEbm9uZSUzQmZpbGxDb2xvciUzRG5vbmUlM0JhbGlnbiUzRGNlbnRlciUzQnZlcnRpY2FsQWxpZ24lM0RtaWRkbGUlM0J3aGl0ZVNwYWNlJTNEd3JhcCUzQnJvdW5kZWQlM0QwJTNCJTIyJTIwdmVydGV4JTNEJTIyMSUyMiUyMHBhcmVudCUzRCUyMm9LdTFmV2VPZDU3LUxET3I1clJvLTMlMjIlM0UlMEElMjAlMjAlMjAlMjAlMjAlMjAlMjAlMjAlMjAlMjAlM0NteEdlb21ldHJ5JTIweCUzRCUyMjEwOSUyMiUyMHklM0QlMjI4NiUyMiUyMHdpZHRoJTNEJTIyNjAlMjIlMjBoZWlnaHQlM0QlMjIzMCUyMiUyMGFzJTNEJTIyZ2VvbWV0cnklMjIlMjAlMkYlM0UlMEElMjAlMjAlMjAlMjAlMjAlMjAlMjAlMjAlM0MlMkZteENlbGwlM0UlMEElMjAlMjAlMjAlMjAlMjAlMjAlMjAlMjAlM0NteENlbGwlMjBpZCUzRCUyMm9LdTFmV2VPZDU3LUxET3I1clJvLTM5JTIyJTIwdmFsdWUlM0QlMjIlMjIlMjBzdHlsZSUzRCUyMmVuZEFycm93JTNEY2xhc3NpYyUzQmh0bWwlM0QxJTNCcm91bmRlZCUzRDAlM0JlbnRyeVglM0QwJTNCZW50cnlZJTNEMC4yNSUzQmVudHJ5RHglM0QwJTNCZW50cnlEeSUzRDAlM0JleGl0WCUzRC0wLjAwMyUzQmV4aXRZJTNEMC43NSUzQmV4aXREeCUzRDAlM0JleGl0RHklM0QwJTNCZXhpdFBlcmltZXRlciUzRDAlM0IlMjIlMjBlZGdlJTNEJTIyMSUyMiUyMHBhcmVudCUzRCUyMm9LdTFmV2VPZDU3LUxET3I1clJvLTMlMjIlMjBzb3VyY2UlM0QlMjJvS3UxZldlT2Q1Ny1MRE9yNXJSby0yNSUyMiUzRSUwQSUyMCUyMCUyMCUyMCUyMCUyMCUyMCUyMCUyMCUyMCUzQ214R2VvbWV0cnklMjB3aWR0aCUzRCUyMjUwJTIyJTIwaGVpZ2h0JTNEJTIyNTAlMjIlMjByZWxhdGl2ZSUzRCUyMjElMjIlMjBhcyUzRCUyMmdlb21ldHJ5JTIyJTNFJTBBJTIwJTIwJTIwJTIwJTIwJTIwJTIwJTIwJTIwJTIwJTIwJTIwJTNDbXhQb2ludCUyMHglM0QlMjIzNTUlMjIlMjB5JTNEJTIyMTY5Ljk5NTU1NTU1NTU1NTY1JTIyJTIwYXMlM0QlMjJzb3VyY2VQb2ludCUyMiUyMCUyRiUzRSUwQSUyMCUyMCUyMCUyMCUyMCUyMCUyMCUyMCUyMCUyMCUyMCUyMCUzQ214UG9pbnQlMjB4JTNEJTIyMjkwJTIyJTIweSUzRCUyMjE2OS45OTU1NTU1NTU1NTU2NSUyMiUyMGFzJTNEJTIydGFyZ2V0UG9pbnQlMjIlMjAlMkYlM0UlMEElMjAlMjAlMjAlMjAlMjAlMjAlMjAlMjAlMjAlMjAlM0MlMkZteEdlb21ldHJ5JTNFJTBBJTIwJTIwJTIwJTIwJTIwJTIwJTIwJTIwJTNDJTJGbXhDZWxsJTNFJTBBJTIwJTIwJTIwJTIwJTIwJTIwJTIwJTIwJTNDbXhDZWxsJTIwaWQlM0QlMjJvS3UxZldlT2Q1Ny1MRE9yNXJSby00MCUyMiUyMHZhbHVlJTNEJTIyJTI2bHQlM0JiJTI2Z3QlM0JPZGdvdm9yJTI2bHQlM0IlMkZiJTI2Z3QlM0IlMjIlMjBzdHlsZSUzRCUyMnRleHQlM0JodG1sJTNEMSUzQnN0cm9rZUNvbG9yJTNEbm9uZSUzQmZpbGxDb2xvciUzRG5vbmUlM0JhbGlnbiUzRGNlbnRlciUzQnZlcnRpY2FsQWxpZ24lM0RtaWRkbGUlM0J3aGl0ZVNwYWNlJTNEd3JhcCUzQnJvdW5kZWQlM0QwJTNCZm9udENvbG9yJTNEJTIzQ0YwMDAwJTNCJTIyJTIwdmVydGV4JTNEJTIyMSUyMiUyMHBhcmVudCUzRCUyMm9LdTFmV2VPZDU3LUxET3I1clJvLTMlMjIlM0UlMEElMjAlMjAlMjAlMjAlMjAlMjAlMjAlMjAlMjAlMjAlM0NteEdlb21ldHJ5JTIweCUzRCUyMjMwNyUyMiUyMHklM0QlMjIxNDQlMjIlMjB3aWR0aCUzRCUyMjYwJTIyJTIwaGVpZ2h0JTNEJTIyMzAlMjIlMjBhcyUzRCUyMmdlb21ldHJ5JTIyJTIwJTJGJTNFJTBBJTIwJTIwJTIwJTIwJTIwJTIwJTIwJTIwJTNDJTJGbXhDZWxsJTNFJTBBJTIwJTIwJTIwJTIwJTIwJTIwJTIwJTIwJTNDbXhDZWxsJTIwaWQlM0QlMjJvS3UxZldlT2Q1Ny1MRE9yNXJSby00MSUyMiUyMHZhbHVlJTNEJTIyJTI2bHQlM0JiJTI2Z3QlM0JQcm9zbGUlQzQlOTFlbiUyMHphaHRldiUyNmx0JTNCYnIlMjZndCUzQiUyNmx0JTNCJTJGYiUyNmd0JTNCJTIyJTIwc3R5bGUlM0QlMjJ0ZXh0JTNCaHRtbCUzRDElM0JzdHJva2VDb2xvciUzRG5vbmUlM0JmaWxsQ29sb3IlM0Rub25lJTNCYWxpZ24lM0RjZW50ZXIlM0J2ZXJ0aWNhbEFsaWduJTNEbWlkZGxlJTNCd2hpdGVTcGFjZSUzRHdyYXAlM0Jyb3VuZGVkJTNEMCUzQiUyMiUyMHZlcnRleCUzRCUyMjElMjIlMjBwYXJlbnQlM0QlMjJvS3UxZldlT2Q1Ny1MRE9yNXJSby0zJTIyJTNFJTBBJTIwJTIwJTIwJTIwJTIwJTIwJTIwJTIwJTIwJTIwJTNDbXhHZW9tZXRyeSUyMHglM0QlMjIyOTMlMjIlMjB5JTNEJTIyODAlMjIlMjB3aWR0aCUzRCUyMjYwJTIyJTIwaGVpZ2h0JTNEJTIyMzAlMjIlMjBhcyUzRCUyMmdlb21ldHJ5JTIyJTIwJTJGJTNFJTBBJTIwJTIwJTIwJTIwJTIwJTIwJTIwJTIwJTNDJTJGbXhDZWxsJTNFJTBBJTIwJTIwJTIwJTIwJTIwJTIwJTIwJTIwJTNDbXhDZWxsJTIwaWQlM0QlMjJvS3UxZldlT2Q1Ny1MRE9yNXJSby00MiUyMiUyMHZhbHVlJTNEJTIyJTI2bHQlM0JiJTI2Z3QlM0JQcm9zbGUlQzQlOTFlbiUyMG9kZ292b3IlMjZsdCUzQmJyJTI2Z3QlM0IlMjZsdCUzQiUyRmIlMjZndCUzQiUyMiUyMHN0eWxlJTNEJTIydGV4dCUzQmh0bWwlM0QxJTNCc3Ryb2tlQ29sb3IlM0Rub25lJTNCZmlsbENvbG9yJTNEbm9uZSUzQmFsaWduJTNEY2VudGVyJTNCdmVydGljYWxBbGlnbiUzRG1pZGRsZSUzQndoaXRlU3BhY2UlM0R3cmFwJTNCcm91bmRlZCUzRDAlM0Jmb250Q29sb3IlM0QlMjNDRjAwMDAlM0IlMjIlMjB2ZXJ0ZXglM0QlMjIxJTIyJTIwcGFyZW50JTNEJTIyb0t1MWZXZU9kNTctTERPcjVyUm8tMyUyMiUzRSUwQSUyMCUyMCUyMCUyMCUyMCUyMCUyMCUyMCUyMCUyMCUzQ214R2VvbWV0cnklMjB4JTNEJTIyMTI4JTIyJTIweSUzRCUyMjEzOSUyMiUyMHdpZHRoJTNEJTIyNjAlMjIlMjBoZWlnaHQlM0QlMjIzMCUyMiUyMGFzJTNEJTIyZ2VvbWV0cnklMjIlMjAlMkYlM0UlMEElMjAlMjAlMjAlMjAlMjAlMjAlMjAlMjAlM0MlMkZteENlbGwlM0UlMEElMjAlMjAlMjAlMjAlMjAlMjAlMjAlMjAlM0NteENlbGwlMjBpZCUzRCUyMm9LdTFmV2VPZDU3LUxET3I1clJvLTE2JTIyJTIwdmFsdWUlM0QlMjIlMjZsdCUzQmIlMjZndCUzQiUyNmx0JTNCaSUyNmd0JTNCQWN0aXZlJTIwc2NhbiUyNmx0JTNCJTJGaSUyNmd0JTNCJTIwemFodGV2JTI2bHQlM0IlMkZiJTI2Z3QlM0IlMjIlMjBzdHlsZSUzRCUyMnRleHQlM0JodG1sJTNEMSUzQnN0cm9rZUNvbG9yJTNEbm9uZSUzQmZpbGxDb2xvciUzRG5vbmUlM0JhbGlnbiUzRGNlbnRlciUzQnZlcnRpY2FsQWxpZ24lM0RtaWRkbGUlM0J3aGl0ZVNwYWNlJTNEd3JhcCUzQnJvdW5kZWQlM0QwJTNCZm9udENvbG9yJTNEJTIzQ0YwMDAwJTNCJTIyJTIwdmVydGV4JTNEJTIyMSUyMiUyMHBhcmVudCUzRCUyMjElMjIlM0UlMEElMjAlMjAlMjAlMjAlMjAlMjAlMjAlMjAlMjAlMjAlM0NteEdlb21ldHJ5JTIweCUzRCUyMjE2MSUyMiUyMHklM0QlMjIzMjMlMjIlMjB3aWR0aCUzRCUyMjEyMCUyMiUyMGhlaWdodCUzRCUyMjMwJTIyJTIwYXMlM0QlMjJnZW9tZXRyeSUyMiUyMCUyRiUzRSUwQSUyMCUyMCUyMCUyMCUyMCUyMCUyMCUyMCUzQyUyRm14Q2VsbCUzRSUwQSUyMCUyMCUyMCUyMCUyMCUyMCUyMCUyMCUzQ214Q2VsbCUyMGlkJTNEJTIyb0t1MWZXZU9kNTctTERPcjVyUm8tMTclMjIlMjB2YWx1ZSUzRCUyMiUyNmx0JTNCYiUyNmd0JTNCJTI2bHQlM0JpJTI2Z3QlM0JBY3RpdmUlMjBzY2FuJTI2bHQlM0IlMkZpJTI2Z3QlM0IlMjBvZGdvdm9yJTI2bHQlM0IlMkZiJTI2Z3QlM0IlMjIlMjBzdHlsZSUzRCUyMnRleHQlM0JodG1sJTNEMSUzQnN0cm9rZUNvbG9yJTNEbm9uZSUzQmZpbGxDb2xvciUzRG5vbmUlM0JhbGlnbiUzRGNlbnRlciUzQnZlcnRpY2FsQWxpZ24lM0RtaWRkbGUlM0J3aGl0ZVNwYWNlJTNEd3JhcCUzQnJvdW5kZWQlM0QwJTNCZm9udENvbG9yJTNEJTIzQ0YwMDAwJTNCJTIyJTIwdmVydGV4JTNEJTIyMSUyMiUyMHBhcmVudCUzRCUyMjElMjIlM0UlMEElMjAlMjAlMjAlMjAlMjAlMjAlMjAlMjAlMjAlMjAlM0NteEdlb21ldHJ5JTIweCUzRCUyMjE5NSUyMiUyMHklM0QlMjIzNDYlMjIlMjB3aWR0aCUzRCUyMjEyMCUyMiUyMGhlaWdodCUzRCUyMjMwJTIyJTIwYXMlM0QlMjJnZW9tZXRyeSUyMiUyMCUyRiUzRSUwQSUyMCUyMCUyMCUyMCUyMCUyMCUyMCUyMCUzQyUyRm14Q2VsbCUzRSUwQSUyMCUyMCUyMCUyMCUyMCUyMCUzQyUyRnJvb3QlM0UlMEElMjAlMjAlMjAlMjAlM0MlMkZteEdyYXBoTW9kZWwlM0UlMEElMjAlMjAlM0MlMkZkaWFncmFtJTNFJTBBJTIwJTIwJTNDZGlhZ3JhbSUyMGlkJTNEJTIyRDk1eTk5MDFtbmEzWThwdTEyY3klMjIlMjBuYW1lJTNEJTIyUGFnZS0yJTIyJTNFJTBBJTIwJTIwJTIwJTIwJTNDbXhHcmFwaE1vZGVsJTIwZHglM0QlMjIxNDM0JTIyJTIwZHklM0QlMjI3MzQlMjIlMjBncmlkJTNEJTIyMSUyMiUyMGdyaWRTaXplJTNEJTIyMTAlMjIlMjBndWlkZXMlM0QlMjIxJTIyJTIwdG9vbHRpcHMlM0QlMjIxJTIyJTIwY29ubmVjdCUzRCUyMjElMjIlMjBhcnJvd3MlM0QlMjIxJTIyJTIwZm9sZCUzRCUyMjElMjIlMjBwYWdlJTNEJTIyMSUyMiUyMHBhZ2VTY2FsZSUzRCUyMjElMjIlMjBwYWdlV2lkdGglM0QlMjI4NTAlMjIlMjBwYWdlSGVpZ2h0JTNEJTIyMTEwMCUyMiUyMG1hdGglM0QlMjIwJTIyJTIwc2hhZG93JTNEJTIyMCUyMiUzRSUwQSUyMCUyMCUyMCUyMCUyMCUyMCUzQ3Jvb3QlM0UlMEElMjAlMjAlMjAlMjAlMjAlMjAlMjAlMjAlM0NteENlbGwlMjBpZCUzRCUyMjAlMjIlMjAlMkYlM0UlMEElMjAlMjAlMjAlMjAlMjAlMjAlMjAlMjAlM0NteENlbGwlMjBpZCUzRCUyMjElMjIlMjBwYXJlbnQlM0QlMjIwJTIyJTIwJTJGJTNFJTBBJTIwJTIwJTIwJTIwJTIwJTIwJTNDJTJGcm9vdCUzRSUwQSUyMCUyMCUyMCUyMCUzQyUyRm14R3JhcGhNb2RlbCUzRSUwQSUyMCUyMCUzQyUyRmRpYWdyYW0lM0UlMEElM0MlMkZteGZpbGUlM0UlMEFf/vZiAAAgAElEQVR4Xuy9CfgcRbX3f8CQhYSErCSAEIgQ9piAsiuyBQkqcOW9JvIqF7gqS5RFWYSALIKoRBTRe5Fw1T+CXhT0FRAQRQUUFAhhSUgQkrCE7IEsZCGS/1SH+qV+lZ6Znu6a7qruzzxPniQzVaeqPnVmzvl2VVdvcubEB9cJLwhAAAIQgAAEIAABCEAAAhCAAAQKJ7CJEulfHHdw4R2hAxCAAAQgAAEIQAACEIAABCAAgSoT+N6tDwkivcoewNghAAEIQAACEIAABCAAAQhAwBsCiHRvpoKOQAACEIAABCAAAQhAAAIQgEDVCSDSq+4BjB8CEIAABCAAAQhAAAIQgAAEvCGASPdmKugIBCAAAQhAAAIQgAAEIAABCFSdACK96h7A+CEAAQhAAAIQgAAEIAABCEDAGwKIdG+mgo5AAAIQgAAERKY+85Qce8Q+G6GYMXdtp/d0uf4DBsnfnp2zUfkffOfrct01l3a8P/GHt8gxx31K9t9ja1m0cP5G5evZYU4gAAEIQAACEMiXACI9X960BgEIQAACEGhIQIvvE8adLF+feGNU9mOHjpTpU58RU6hfdM7n5PZbb44+1wLcNLzz4C6ibcTV1yI+ri5TBAEIQAACEIBAcQQQ6cWxp2UIQAACEIDARgTiRPpdd/5czjntRDnr/Mvk9LMv6hDu6h9KvB/8kSNl0m33dNjS5Yfvtqf89o+TYykj0nE+CEAAAhCAgJ8EEOl+zgu9ggAEIACBihKIE+n6PS3G9f+VaH/i749EW+TNLe/2lnl7q7xCi0ivqIMxbAhAAAIQ8J4AIt37KaKDEIAABCBQJQJJRLre6v7r3z8uf3rg7ujec3vburkdXvEzt88j0qvkUYwVAhCAAARCI4BID23G6C8EIAABCJSaQBKRrg5/Uy+9eq7uP7e3vKvP7RV1U8izkl5qN2JwEIAABCAQMAFEesCTR9chAAEIQKB8BJrdk37I4WNiT39XJOK2tav3Txl7tDz04P2d7mlHpJfPdxgRBCAAAQiUgwAivRzzyCggAAEIQKAkBJqd7q63sZur4vZ7+v/6oDlze/xue74/IoVIL4nDMAwIQAACECgdAUR66aaUAUEAAhCAQMgEmj0nXT/n3Fw116e5m1ve9eq5ZmGeDI9ID9lD6DsEIAABCJSdACK97DPM+CAAAQhAAAIQgAAEIAABCEAgGAKI9GCmio5CAAIQgAAEIAABCEAAAhCAQNkJINLLPsOMDwIQgAAEIAABCEAAAhCAAASCIYBID2aq6CgEIAABCEAAAhCAAAQgAAEIlJ0AIr3sM8z4IAABCEAAAhCAAAQgAAEIQCAYAoj0YKaKjkIAAhCAAAQgAAEIQAACEIBA2Qkg0ss+w4wPAhCAAAQgAAEIQAACEIAABIIhEIn0CT/627oly1YF02k6CgEIQAACEIAABCAAAQhAAAIQKCOBvlt0l03OnPjguuvPPqSM42NMEIAABCAAAQhAAAIQgAAEIACBYAiM/86fEOnBzBYdhQAEIAABCEAAAhCAAAQgAIFSE0Ckl3p6GRwEIAABCEAAAhCAAAQgAAEIhEQAkR7SbNFXCEAAAhCAAAQgAAEIQAACECg1AUR6qaeXwUEAAhCAAAQgAAEIQAACEIBASAQQ6SHNFn2FAAQgAAEIQAACEIAABCAAgVITQKSXenoZHAQgAAEIQAACEIAABCAAAQiERACRHtJs0VcIQAACEIAABCAAAQhAAAIQKDUBRHqpp5fBQQACEIAABCAAAQhAAAIQgEBIBBDpIc0WfYUABCAAAQhAAAIQgAAEIACBUhNApJd6ehkcBCAAAQhAAAIQgAAEIAABCIREAJEe0mzRVwhAAAIQgAAEIAABCEAAAhAoNQFEeqmnl8FBAAIQgAAEIAABCEAAAhCAQEgEEOkhzRZ9hQAEIAABCEAAAhCAAAQgAIFSE0Ckl3p6GRwEIAABCEAAAhCAAAQgAAEIhEQAkR7SbNFXCEAAAhCAAAQgAAEIQAACECg1gSBEuuokLwhAAAIQgEAaAteffUiaarnUIb7lgplGIAABCEAAAhsR8D0/2OTMiQ+u872TXxx3MK4FAQhAAAIQaInA9259SIhvLSGjMAQgAAEIQKD0BELIDxDppXdDBggBCECgmgRCCMJchK6mbzJqCEAAAhAojkAI+QEivTj/oGUIQAACEGgjgRCCMCK9jQ6AaQhAAAIQgEAMgRDyA0Q6rgsBCEAAAqUkEEIQRqSX0vUYFAQgAAEIeEwghPwAke6xA9E1CEAAAhBITyCEIIxITz+/1IQABCAAAQikIRBCfoBITzOz1IEABCAAAe8JhBCEEeneuxEdhAAEIACBkhEIIT9ApJfM6RhOOAQ+duhImT71GZkxd23U6bvu/Lmcc9qJ0b8n/vAWOea4T0X/3n+PraO///bsHJn6zFNy7BH7SP8Bg6L/268ffOfrct01l3a8re0oG4sWzt+ofD074VCkpxCoTyCEIIxIx4Mh4BeBenFU9zJtHPZrlPQGAtUmEEJ+gEivto8y+gIJnDL2aHnowfvl179/XHbb8/1y0Tmfk9tvvTnq0QnjTpavT7yxQ5Qf/JEjZdJt93QqYwp5PYydB3fpqGtfBFBldPIRV7dAFDQNgbYQCCEII9LbMvUYhUBqAs3iqBmr08Th1B2jIgQg4IxACPkBIt3ZdGMIAq0R0IL5rPMvk9PPvki0qFar2wMGbSW//ePkDlFtllGtqBV4Ldx1q3olfvhue0Z1416I9NbmiNJhEwghCCPSw/Yxel8uAkniqIrVWeJwuYgxGgiESSCE/ACRHqZv0esSENBb5pTYPverV0Xb2JXAHrTVkGiFXW2DN1fb1ZBVGSXYn/j7I9Equ7nlXdvTaPQ2ehMVIr0EjsMQEhMIIQgj0hNPJwUh0HYCzeKo/jxLHG77IGgAAhBoSiCE/ACR3nQaKQCB9hFQ94qrVfOPfuyT0b3kKvCrl/q32kb39QnnRP9XYlxvsVPb4//0wN0dZfS966qcuQ1P/V9vm9cjQKS3by6x7B+BEIIwIt0/v6FH1SbQKI66iMPVpsvoIeAHgRDyA0S6H75CLypKQG9xV6vp+v50hUKtmOv39LZ28wA5VUbdN2dveVfv2ysB5j1ziPSKOlpFhx1CEEakV9Q5GbbXBOrFURdx2OuB0zkIVIRACPkBIr0izsgw/SRgXrE37yU3T2NXq+uHHD4mEu5xr7ht7aqc3iqv72dX7yHS/fQDetUeAiEEYUR6e+YeqxBwQcCMo67isIt+YQMCEMhGIIT8AJGebY6pDYFMBMzHrplb03VioIyr7e0/+58fRCe/m6viWuDr9/T/tSg3t+Wp0+MR6ZmmisoBEgghCCPSA3QsulxaAo3iqKs4XFp4DAwCAREIIT9ApAfkUHS1nATUtnX1ituWrp9jrlfWzVVzLfDNLe+muFc2zVV0RHo5/YdR1ScQQhBGpOPBEPCLQL046ioO+zVaegOBahIIIT9ApFfTNxk1BCAAgdITCCEII9JL74YMEAIQgAAEPCMQQn6ASPfMaegOBCAAAQi4IRBCEEaku5lrrEAAAhCAAASSEgghP0CkJ51NykEAAhCAQFAEQgjCiPSgXIrOQgACEIBACQiEkB8g0kvgaAwBAhCAAAQ2JhBCEEak47kQgAAEIACBfAmEkB8g0vP1CVqDAAQgAIGcCIQQhBHpOTkDzUAAAhCAAATeJRBCfoBIx10hAAEIQKCUBEIIwoj0Uroeg4IABCAAAY8JhJAfINI9diC6BgEIQAAC6QmEEIQR6ennl5oQgAAEIACBNARCyA+8F+mX3PSoLFm2Kg1/6kAAAhCAQIUJ9N2iu1x+6n7eEiC+eTs1dAwCEIAABEpMwPf8YPx3/iTei3TVyevPPqTEbsLQIAABCECgHQR8jx++968dc4JNCEAAAhCAQNEEfI+/iPSiPYT2IQABCECgbQRCCMJchG7b9GMYAhCAAAQgEEsghPyAlXScFwIQgAAESkkghCCMSC+l6zEoCEAAAhDwmEAI+QEi3WMHomsQgAAEIJCeQAhBGJGefn6pCQEIQAACEEhDIIT8AJGeZmapAwEIQAAC3hMIIQgj0r13IzoIAQhAAAIlIxBCfoBIL5nTMRwIQAACEFhPIIQgjEjHWyEAAQhAAAL5EgghP0Ck5+sTtAYBCEAAAjkRCCEII9JzcgaagQAEIAABCLxLIIT8AJGOu0IAAhCAQCkJhBCEEemldD0GBQEIQAACHhMIIT9ApHvsQHQNAhCAAATSEwghCCPS088vNSEAAQhAAAJpCISQHyDS08wsdSAAAQhAwHsCIQRhRLr3bkQHIQABCECgZARCyA8Q6SVzOoYDAQhAAALrCYQQhBHpeCsEIAABCEAgXwIh5AeI9Hx9gtYgAAEIQCAnAiEEYUR6Ts5AMxCAAAQgAIF3CYSQHyDScVcIQAACECglgRCCMCK9lK7HoCAAAQhAwGMCIeQHiHSPHYiuQQACEIBAegIhBGFEevr5pSYEIAABCEAgDYEQ8gNEepqZpQ4EIAABCHhPIIQgjEj33o3oIAQgAAEIlIxACPkBIr1kTsdwIAABCEBgPYEQgjAiHW+FAAQgAAEI5EsghPwAkZ6vT9AaBCAAAQjkRCCEIIxIz8kZaAYCEIAABCDwLoEQ8gNEOu4KAQhAAAKlJBBCEEakl9L1GBQEIAABCHhMIIT8AJHusQPRNQhAAAIQSE8ghCCMSE8/v9SEAAQgAAEIpCEQQn6ASE8zs9SBAAQgAAHvCYQQhBHp3rsRHYQABCAAgZIRCCE/QKSXzOkYDgQgAAEIrCcQQhBGpOOtEIAABCAAgXwJhJAfINLz9QlagwAEIACBnAiEEIQR6Tk5A81AAAIQgAAE3iUQQn6ASMddIQABCECglARCCMKI9FK6HoOCAAQgAAGPCYSQHyDSPXYgugYBCEAAAukJhBCEEenp55eaEIAABCAAgTQEQsgPEOlpZpY6EIAABCDgPYEQgjAi3Xs3ooMQgAAEIFAyAiHkB4j0kjkdw4EABCAAgfUEQgjCiHS8FQIQgAAEIJAvgRDyA0R6vj5BaxCAAAQgkBOBEIIwIj0nZ6AZCEAAAhCAwLsEQsgPEOm4KwQgAAEIlJJACEEYkV5K12NQEIAABCDgMYEQ8gNEuscORNcgAAEIQCA9gRCCMCI9/fxSEwIQgAAEIJCGQAj5ASI9zcxSBwIQgAAEvCcQQhBGpHvvRnQQAhCAAARKRiCE/ACRXjKnYzgQgAAEILCeQAhBGJGOt0IAAhCAAATyJRBCfoBIz9cnaA0CEIAABHIiEEIQRqTn5Aw0AwEIQAACEHiXQAj5ASIdd4UABCAAgVISCCEII9JL6XoMCgIQgAAEPCYQQn6ASPfYgegaBCAAAQikJxBCEEakp59fakIAAhCAAATSEAghP0Ckp5lZ6kAAAhCAgPcEQgjCiHTv3YgOQgACEIBAyQiEkB8g0kvmdAwHAhCAAATWEwghCCPS8VYIQAACEIBAvgRCyA8Q6fn6BK1BAAIQgEBOBEIIwoj0nJyBZiAAAQhAAALvEgghP0Ck464QgAAEIFBKAiEEYUR6KV2PQUEAAhCAgMcEQsgPEOkeOxBdgwAEIACB9ARCCMKI9PTzS00IQAACEIBAGgIh5AeI9DQzSx0IQAACEPCeQAhBGJHuvRvRQQhAAAIQKBmBEPIDRHrJnI7hQAACEIDAegIhBGFEOt4KAQhAAAIQyJdACPkBIj1fn6A1CEAAAhDIiUAIQRiRnpMz0AwEIAABCEDgXQIh5AeIdNwVAhCAAARKSSCEIIxIL6XrMSgIQAACEPCYQAj5ASLdYweiaxCAAAQgkJ5ACEEYkZ5+fqkJAQhAAAIQSEMghPwAkZ5mZqkDAQhAAALeEwghCCPSvXcjOggBCEAAAiUjEEJ+gEgvmdMxHAhAAAIQWE8ghCCMSMdbIQABCEAAAvkSCCE/QKTn6xO0BgEIQAACOREIIQgj0nNyBpqBAAQgAAEIvEsghPwAkY67QgACEIBAKQmEEIQR6aV0PQYFAQhAAAIeEwghP0Cke+xAdA0CEIAABNITCCEII9LTzy81IQABCEAAAmkIhJAfINLTzCx1IAABCEDAewIhBGFEuvduRAchAAEIQKBkBELIDxDpJXM6hgMBCEAAAusJhBCEEel4KwQgAAEIQCBfAiHkB4j0fH2C1iAAAQhAICcCIQRhRHpOzkAzEIAABCAAgXcJhJAfINJxVwhAAAIQKCWBEIIwIr2UrsegIAABCEDAYwIh5AeIdI8diK5BAAIQgEB6AiEEYUR6+vmlJgQgAAEIQCANgRDyA0R6mpmlDgQgAAEIeE8ghCCMSPfejeggBCAAAQiUjEAI+QEivWROx3AgAAEIQGA9gRCCMCIdb4UABCAAAQjkSyCE/ACRXscnFi9dJc/OXCTPzVwsby5fI0tXrJZlb63J14MCam2LzbtKn57dpE+vrrLbDv1kjx36S7/e3QMaAV2FQH0Cb69cIMvnPynLFzwpa1cvqf15o/bnTZDVIdClWx/p0m3L2p9+0mvgSOk1aJRs1mNg7rxCCMLtFunEstbcjljWGq92ll62ZIXMnjpHZk+bIyvefEveWrZKVi5f1c4mg7bdo1d32bx3D+nZp4dsv8vWsv1uW8sWfXsGPaZQO0/O0NrMFZEzhJAfINItP5o6a7Hc++hsmbfkLdlxm36y3ZB+skXth69Xj67Ss/aH18YE1q0TWbFyTe1P7UJG7WLGrDmLoz+D+20uo/fdXnYb2g9sEAiSwPIFk2XRi7+S1cvnSK9+O0mvvttL1+41Adq1V/SHVxyBdbJ2zfLanxWyZtWbsnzJS7J88UvSrde20n/Y8TXR/v7csIUQhNsl0ollrbsZsax1Zu2o8fLzc+Tx+5+TNxYsla22HyADtu4rm/fqId1qiwHdN+/WjibDt1nLw1bVcrDVtcWkt5avlAWvLpb5ryySvlv1lr0P3122q4l2Xu0nQM6QhnExOUMI+QEi/V1/en3RCvl/D8+MxPmoXd8rw4cOSuNp1DEITJ81X56c+opsVRPrHz9oBxnSnyu6OEgYBFYve0UWzPiZrFkxR/pv+wHpM3C3MDrucS/fXDBVFr36D+nac1sZuPNY6bbFe9ve2xCCsGuR/vrCFfKbR2bKfGKZM/8iljlD2dDQ4rlvyqN3PyVvzF8qO+yxnWwzbKt8Gi5xK6+9OE9eevblmljvI/sdPUL6De5T4tEWNzRyBvfs250zhJAfINJrfvXMiwvlJ/dOk/33Gip77czVRtdftaemz5HHnpklnz1qV9lz2ADX5rEHAacEls17XOY8fb0M3P5g6TdkpFPbGBNZPOcJWfDyI7L1iPGyxaB92ookhCDsUqRHsex3tVg2gljWDscilrWD6nqbs557TR742V9l+N47yPa7btu+hipqedbUV2XG5Jly+LgDZOju2zSlsMkmm2xU5pRTTpGbbrqpad1WCtx2220ybtw4ueKKK+Tiiy9uWvXUU0+VSZMmdZTba6+9ZMqUKU3rtbMAOUM76bYvZwghP6i8SP/jk6/KfY/NliP2Gy7b17ZU8WoPgdlzlsjvH50uR9W2v39kFAG4PZSxmpXA4pl3ycIX75Ctd/5obWv7jlnNUb8OAbUFfs6M38mA931S+g09um2cQgjCrkQ6saxtbtTJMLHMPecpf35ennjgORlx8C4ycNv+7hvAYkRgwauLZMpDz8s+R+4hex08vCEVJdJNAXzUUUfJfffdJ7feequMHTvWGdFWRbpuWPfnySeflJEji7uYTs7gzBUaGmpHzhBCflBpka5WHW65f7ocecBw2W4wAr3dX7WX5y6R+/86XU48cjgr6u2Gjf2WCSyb/7i8/vQPZJudj5aefXdouT4VWiOwYslMeW3GPTJkr9PbtqIeQhB2IdKJZa35XtbSxLKsBDfUn/ncq/Lgzx+TER/aVQbWzgHi1V4CC15bLFP+Mk0O/dR+DVfUbZGuxbRaTT/jjDNk1KhRkYh/+umnow4rsaxe6n39MgX9lVdeKRMmTNjoM1uk6//rgqYIN1fRR48eHV000J/Xq6ff1+WVXVc7AtQK+uvPkDO012M3WHedM4SQH1RWpKt70K/9+ZNy1AG7soKe1zes1o5ahbj3r9Pk3E+NSnSP+uTJkzv96OtgkOTK6VZbbSWDBw+O3QrV6LMcceTWlBlg47arKc4nnXRS4dvGcgNiNaTuJ5v16MWyzfBjWEHPcRLU1fHXpt8lQ/e7si33qIcQhLOKdGJZjg5rNNVqLCuml363unjuG3LH9b+XkR/ejRX0HKdKrahP/vNUOX78kXXvUU8i0lWX16nTFmsvnaspMXzvvfeKudKtxbsWxyNGjIjEvaprivQxY8ZE+Z4up22Y5fRnKoebP7927pFxcaBRPb0rwGw7C/LVy16u5QwTyBmyQExR12XOEEJ+UFmR/t+/eVYG9OvDPegpviRZq6j7+hYveVM+/4k9mppSgcK86ql/mHVgaGogpoAdTNLYCK1OM5FuB+TQxpe1v68+8U3ZfIt+3IOeFWSK+uoe9beWvyHb7n1eitqNq4QQhLOKdGKZc7dJbLCVWJbYaIUK3nPzX2SLPptzD3oBc67uUV++9C05+uQPxbbeaLv7Lrvs0rGSru8H16vcevVc51nmyrtqyL6H3BTps2bNiu43t1fH1f3q9mfmRYAbbrihbr1hw4ZF97zHCfgs2MkZstDLVtdVzhBCflBJka4eTfPLB/8pY4/eO5unUDs1gVvveUJO+Mj7Gj6erZmwtLdPqc7E/birw0j01VNVRm970geV2AeR6AsAcduk7IsDpl1lO8n2LlWuXj09JmVHBRb1sg9Usbd1qTI6ANlj0e/rOoMGDYquPpt19IUP9Z76fN68eR1Xt/UEa672DgQVyPWV89TOUHDF5QuekvnTbpYdR3624J5Ut/mXJv9YBu16cvRMdZevEIJwFpFOLHPpLelsJYll6SyXu5Z6zNpDdz4hB3/iA+UeqMeje+jX/5CDj9879vFscQfH6VwkbqFD5x46V6i3sq5xaLEeJ9JtZCqPUS9TwJvtaZEeV++www6LFelZ7mUnZyjeqV3kDCHkB5UU6RN/Pll23mEwj1kr8HumHmkzY9ZcOeff6yflthi1DyzRV1JV4NDbpLRgNH/AL7zwwo57l55//vkO8at+pPWPu7Ztik4tmLVwtXGZW7HUZ6quLqvr6qBmbrGyDzwx65kiW10QUKJYvZRwjnvpQKr6r69u6+ATt1Ws3pYv86q5eQVcbY037Zh91yyTnspaoLs1bHp2bZv7loOG85i1AidIPWrljfkzZPv9rnDaixCCcBaRTixz6i6pjCWJZakMl7zSHd/7vQzZYRCPWStwntXj2V6v5WLHjz9io1402l3XSKTHraSbt9iZtzCq3EGvdMetlpudslfqG62km/XsxR4XB86RMxTotO827SJnCCE/qJxIX7x0lVzzsyfk1OP3K97LKt6DH93xqFzw6b2lX+/udUnYK8OmYFbCd+7cuR0C1hS0pii2V3u1sFUi2A5Eps1mP+a6jbhHgDQT1+aAzdVpbdNcua4n0jUbeyXb3mGgbGlBXW/Ll8nBviJuXumOC6hZbj0o+ivw9soFMvOR82Xnfc8ouiuVb3/GY9+XHQ78pmzWY6AzFiEE4bQinVjmzE0yG0oSyzI3UiIDy5askNsn3iuHjz2wRKMKcygP3PaInHDOUbJF356dBtCqSG90T7qdf5g7BlWj+hFs9mJL3KJAo3vS4+6Hr5f7pF1JJ2fwx8+z5gwh5AeVE+l/mfKaTJ29VA7bd2d/PK2iPXng0Rmy+9De8qERzZ/ZaW4P1z/Stvg2hbEOMBdccMFGz+DUn/34xz/e6FA6NRX6QoB9ESBumuwtYUqwNrvnPe4wPB1c7MBYbzu5aSPudFPVj0YBLm41X19ssC+M6HGb3FVZ9RoyZEh0SEyoryWz75OVix6XrXc6KtQhlKbfc174nfTo/wHpu/1oZ2MKIQinFenEMmduktlQK7Esc2MlMPDsIy9Ez0Xf66BdSjCasIfw9MPPR6e873HgTplEuqps5zamELYXD+xb8fSOvEY7KFs53V2v6LteSSdn8Mffs+YMIeQHlRPpP/z1MzJ0m0Hyvu0G+ONpFe3JP19eKLNfmy9fOHbPRATMH1t9n5EWt6YwvvrqqztOCB06dGj02A87AJiHmdR7HEcr91vr4NHMrnmfuxK35rZ4+2TTRvfka5Ft9t1eAc8q0utdadZ21cWM8ePHi7rnP9TXK49fLX36by+9BzR+Zmyo4wup30sXTpc3F70s793nAmfdDiEIpxXpxDJnbpLZUKuxLHODgRu4+6Y/y4Ct+8qQoYMCH0n43Vfb3Re+vkTGnPLh8AeTwwjIGXKAnLCJrDlDCPlB5UT6Nbc8IQeOGiZb9d8ioRtQrF0E5i1aJg8/+aJccOLGB/jFCVQtaJV4vPvuuyPxrVe9TYGqPzPv07a3QWnRbq6+a/vNhLbiYW9Lt+9BN7ewm3b1RQN9lde0o/ttH2hn34tvXmk2t5prBrq+XuVvtN1dC/G4e9Ljto6pR9/Va79dftJOuzMfOU+G7Phh6d5rcDubwXYCAquWz5XXX/pztOXd1SuEIJxWpBPLXHlJdjuNYll26+Wz8L+1re677jNM+gwgDyt6dt9cuEym/eOf8n/O/WjRXQmifXIGf6Ypa84QQn5QOZH+1f/+q5xw5EjptXlXfzytoj1Z/tYauf3+yXLV5w+IJdDo9Ha9mqu2XavnbaqXFqf2Vu647dvmKrG5ZV3bMO+ZGjt2bGz/zFPRVQFzVdve9hX3GDlVR/ffPMRO963e8zzjxqO3qpt90raVyFevuMeQ2IfMqXLmM0n1wO0LBWV5ZNsLf/yc7DBinHTpSrJY9M/Q2jXLZOaUW2WnQ2901pUQgjrkP/wAACAASURBVHBakU4sc+YmmQ01i2WZGyiZgR9/7U454JhR0n3zbiUbWXjDWfXWavnrXU/KSV87LrzOF9BjcoYCoNdpMmvOEEJ+UDmRriZl/NiDaweG+eNoVe1J7bZpuf62hyRNkprkfvGqcmXc6wmsXbtWunTp0hDHtN/9u+x60FdqZfhBKN5v1sm0h78lu370F866EkIQTvP7pwARy5y5SWZDWWJZ5sYDNPDDL98mY/7jI/zs+jB3tTzs7v95UE77dvxihA9d9KkP5Aw+zUa2nCGE/KCSIv2L4w72ycsq3Zfv3ZpOpJdlJbfSk9/mwX/729+Wd955R84555y6Yn19wD2vzT3BfFIC0x7+JiI9ISyVYBDLEsLKoVjaWJZD17xrIhLpJ9dEOi8vCNx9MyI96USQMyQllU+5LDkDIt3BHLmGSGLjYFIcmiCxcQgTU50IKIG++eabRwL9kksuiRXrBFy/nCZLwI0biev44ZpWlv4Ry1zPRjZ7cbEs7pYt1Uq9w0p1DxodGqrKqNupTjrpJJkyZUq2ThdUG5FeEPg6zSLSk88HOUNyVnmUzJIzZIm/eYxN9Y+V9DxI00ZdAoh0nKOdBNRquhLo3bt3l3/9619y0UUXdRLrBNx20m/ddpaAi0hvnTc13BFIEsvsA0frtd5MpIe+kwyR7s7vXFjKU6Q3823fL0CRM7jwOHc2suQMiHQH8+AaIqsPDibFoYkkiY3D5jBVMQJqNb1///7yxhtvRCPv27dvJ7H+wu8/zXZ3j3wiS8BFpHs0kRXsSrNYZj6m86abbooI2YeA2s+OVk8vmT9/flRWf2YeDqqfbmI/W1ofCGo+ZUTZaOWxou2cQkR6O+m2btsnke77BShEeuv+1c4aWXIG1/rS9ThZSXdNFHstE/jMyZ+Xp/90W8v1qACBpARWr14tm266qbz99tsdVdQ2+J49e8pnP761fHPiTVHyyqt4AlkCLiK9+Pmrcg8aiXQtovVTOBQn/QQQ+wkb5tM1dHn7SR9xj8zUIl4/3UTZMZ908vzzz0dP+NBPMClyrhDpRdLfuO20It2+OGReTCrrBShEul++myVnQKQ7mEvXEFlJdzApDk1c9/89KN86Pf4RbA6bwVSFCeywww4dq1HdunWLxPr48ePlq1/9qix6Yjwr6R75RpaAi0j3aCIr2JVGIl1fBFTC2X7Z960r0a4FdZzwVvVNka7FkBb7WjgpMT5s2LAOYT5r1iyZNGlS9IjNol+I9KJnoHP7aUW6aUX7uHpc6y677CKjRo2SMl6AQqT75btZcgbX+tI1GVbSXRPFXssEmm0RbNkgFSBgELjhhhtkwoQJ8tZbb3US52qbqHoRcP1ylywBF5Hu11xWrTf1YpleBVfiZezYDY+5Mlch66162yJdi544kW7z1nV1WfX5kCFD5N577y18ahDphU9Bpw5kFen6QtHo0aM7+VcZL0CRM/jlu1lyBkS6g7l0DZGVdAeT4tAEIt0hTExtRKBXr16ycuXKjpVzLc51QQKuX06TJeAi0v2ay6r1Ji6W1RMvio29Ah63Nb0Vka4FvM1d21W/fWoH0cUXX1z41CDSC58CZyJd37ahDNq7OdR7ZbsARc7gl+9myRlc60vXZFhJd00Uey0TQKS3jIwKCQmoVfRXXnklOs3dFueI9IQQcy6WJeAi0nOeLJrrRCAulqmD29Rr3rx5G9HSIl3fI663Czfa7h63kq5Fkl7FNMX+yJEjxV6x92HaEOk+zMKGPmRZSdf+Zj5WsMwXoBDpfvlulpwBke5gLl1DZCXdwaQ4NIFIdwgTU50IqMRYJ8n10BBw/XKaLAEXke7XXFatN/VEuj6d3eShD4QzT2pX7z399NOitsWrlzrkrd5KuhZGqpx50Jxuw95an+eJ2UuXLpXevXs3nH5Eul/fjrQivd4FoDJfgCJn8Mt3s+QMrvWlazKspLsmir2WCSDSW0ZGBYcECLgOYTowlSXgItIdTAAmUhMglq1Hd91110WPvDz33HNliy22iOWJSE/tZm2pmFak2ye4q86FfAHqjDPOkMMPP1yOO+64upzJGdrigqmNZskZEOmpsW+o6BoiK+kOJsWhCRIbhzAx1TIBAm7LyNpaIUvARaS3dWow3oQAsWwDIPWIy3feeUcuvPDC6HYjW6wj0v36OqUV6X6NIntv/v73v8sBBxwQnUyvnv5y7LHHbmSUnCE7Z5cWsuQMrvWly3EpW6ykuyaKvZYJkNi0jIwKDgkQcB3CdGAqS8BFpDuYAEykJkAs24BOraYrkdOlSxdZu3atnH/++Z3EOiI9tZu1pSIifQPW448/Xu68807ZcsstZeedd478+BOf+ERHAXKGtrhgaqNZcgZEemrsGyq6hshKuoNJcWiCxMYhTEy1TICA2zKytlbIEnAR6W2dGow3IUAs6wyof//+snjx4uhNtZJuivVbLrtLxpz8EXzKEwKI9A0T8dhjj8mhhx4aPbZVvZRYHz58eCTWP/7xj/PYVk98VncjS87gWl+6RsNKumui2GuZAIlNy8io4JAAIt0hTAemsgRcRLqDCcBEagInfvYU+ft9P0ldv4wVN9tsM3n77bc7htatWzfp2rWrfGiPI+Wb3/2G9OrZq4zDDm5Mp//nmXLP3+4Q/YQBNQD9b/vvuM+SvtfIvk821KGzpt+qvnXv3l323Xdf+eSH1sqZX/lucHNc1g5nyRkQ6Q68wjVEVtIdTIpDE76LdPMZoHrY9Z5Ha2NRJ/cOHjxYpkyZshGxRp85xFu4KftxQIV3yOoAIt2vGckScBHpfs1l1XrjeyzLez4GDhwoCxcujJpVwnzTTTeVs846K1qRZCU979lo3J5eSVdPCtAv/W/7b/V52vca2U9qt902XnvtNdl///2jMxXUS11YUv/+0pe+FJ2xMO+x02TXg87zawIr3JssOYNrfel6GlhJd00Uey0T8D2xUVd+zed/6kfmmIGi1UHbz7VttX5I5RHpIc1W8X3NEnAR6cXPX5V74Hssy3Nu1D3pl1xyiaxevbqTONcHyHFPep6z0bwttrtvYHTaaafJzTff3PHGF7/4xejCUt++faP3uLDf3J/yLJElZ0CkO5gp1xBZSXcwKQ5N+JzY6GeAmiLdHPqVV14pEyZM6ERDr7LruldccYVcfPHFMmLEiOgZuOo1evRoue+++0R/Zj/GRF8A0DZ0eVXXvjhg2lWfm8/Htftnflavnq6jyqrn9KqX7qc5UHuHgWnbHI/uu+ZifqafC6w/q2fT3nWgLpwou/fee6/Uq6Pf122ovsftgCDgOvwyOzCVJeDGNe86fjgYYicTWfpHLHM9G9ns+RzLso2s9drqdPd//etf0WFxSuBwunvrDPOsgUhfT/vll1+WoUOHRgce6l0f6p5080XOkKdnNm8rS86QJf4271n2EqykZ2eIhYwEfE5stEjWQzSFqHpPrxIrETtmzJjosR1aPGoxqoSh2iKlRLn69/PPP98hftX/b7jhBpk0aVKHuDYFqBbMgwYNEnWPlP3S7WvhrurqsrqufZFAlbVXt816pohWZZVAVi+zfXsngGlPj09f2ND3oJljj/tMtWHyM23G8YtjbtbR9tTfjXY9EHAzfoEdV88ScOO6EkIQvv7sQ1JRRKSnwta2Sj7HsrYNOsbwd7/73eg56XGPXtPFWUnPc0aat4VIX89IbWlXovzss8+O/o57kTM096c8S2TJGULIDzY5c+KD69ImCXlMhGuIJDZ5zFryNnxPbOxVblMwq9XouXPndghYU9DqlWolEE3hrcho4ao/U6u9+r5102azreK6DbO+Jh8nruvNirlSrW3qVec4O5qJvmihRbsS3+qlLjro+uYY9AWJRp/F2TzssMOiCxtKmM+aNSuyr9g16scZZ5wRif44NiYHAm7y72oeJbMEXER6HjNEG/UI+B7L8pq5pUuXSu/evRs2h0jPazaStYNIl+iguJUrVzb1XXKGZD6VV6ksOYNrfel6zKykuyaKvZYJhJLYmNvDzZVgvXKuBm4KWiXElUC84IILOgSm2vauRbr67Mc//nEkJO2XvhBgXwSIg2uelqo+V+K12T3vcYfh6XHofuuLBvYFBtWGuUtg5MiRndrbdtttM4l0e+u73S/V/pAhQ6Kt7o36cfXVV3dama/nmATclr+yba2QJeAi0ts6NRhvQiCUWObDRCLSfZiFDX1ApCefD3KG5KzyKJklZ0CkO5gh1xBZSXcwKQ5NhJTYmPeo69Vd+95o9X8tEJWYV/c3qfvW9bZz04Ze7a13z3ucQK6HXgtWZauRXfM+dyV0zW3xesu+7k+9e/KTrKTrFfG4lfQkn5mr8zfddFPHFn11AWP8+PHRff5JVtLNiyhx7Ai4Dr/MDkxlCbiIdAcTgInUBEKKZakH6agiIt0RSEdmEOnJQZIzJGeVR8ksOYNrfel6vKykuyaKvZYJ+JrYxAlULWjVau/dd98diW+96m2u6urPlBjdZZddYu+11qLdXH3X9psJbQXZ3pZu34NubmE37eqLBloom3Z0v+0D7ex78fO+J12t1pvnA+h7zBv1QzEy73Gv55gE3Ja/sm2tkCXgItLbOjUYb0LA11jm48Qh0v2aFUR68vkgZ0jOKo+SWXIGRLqDGXINkZV0B5Pi0ITPiU2j09v1CrF5ergWt/a95PZ97QqfedK4uWVd2zBPWR87dmwscf04OP2huSJvb2mPe4ycqmeesG7fM27eV293wLZvjifp6e765HdbdOu27NPY7a34qly9fjTb8q/bIOA6/DI7MJUl4CLSHUwAJlIT8DmWpR5Umyoi0tsENqVZRHpycOQMyVnlUTJLzuBaX7oeLyvprolir2UCSRKbO+64Qw499NC6p2223KiDCknuF3fQTKlM2LsTfGBIwPXLxbIEXES6X3NZtd4kiWVVY1JvvIh0vzwBkZ58PsgZkrPKo2SWnAGR7mCGXENkJd3BpDg00Six+eUvfylf+MIX5PTTT5fLL7/cYavZTcWt6ma3Wn4LjZ7rXsToCbhFUK/fZpaAi0j3ay6r1htEevIZR6QnZ5VHSUR6csrkDMlZ5VEyS87gWl+6Hi8r6a6JYq9lAnGJze233y5f+9rX5LXXXpMVK1bIwoULpU+fPi3bpgIEmhEg4DYjlO/nWQIuIj3fuaK1zgQQ6ck9wgeRft4l58ovfnXrRp3edefd5N47/5B8MCUoiUhPPonkDMlZ5VEyS86ASHcwQ64hspLuYFIcmjATm1/84hdy2WWXyZw5c+TNN9+Url27ytlnny3f+MY3HLaIKQhsIEDA9csbsgRcRLpfc1m13iDSk8+4DyL9qOMOk2kzpsZ2+t//bZx88/Jrkw8o8JKI9OQTSM6QnFUeJbPkDK71pevxspLumij2WiagEpsDBr8u559/vixdujQS5/rVpUuX6AT17t27R2/pA9bMv5O+p+uHUD6kvsbxDKn/8/5xtnxw9EUt+y0V2kMgS8BFpLdnTrCajAAiPRknVcoHkT7q4D1l0eKFcs8vfy+777pH1Pnr/+s6+fb118iHDzxEfnrjbbL97kNErayf9p9nyhe/cnpURpX/58wXOv6v3jNFvbb75fHny/gvnCXPTXtWjv7kEVFdVU6v3s9+7vVObRa5go9IT+67iPTkrPIomSVnQKQ7mCHXEFlJdzApDk2oxGZkn5cika62tq9cubLDuhLn6pnYWgjqU8DNv5O+p4yqsiGUD6mvcTxD6v+VZ+woJ37hWw49GlNZCGQJuHHtuo4fWcbmun/EMtezkc0eIj05v6JFuhbO/fsNkCcfeqaj43p1XYnpz479j0hcK/GsV9zVv8eM/lgk5O2XFuW/uefOSMBr20roq5f+3L44oNs0LxYkJ+mmJCI9OUdEenJWeZTMkjOEkB9scubEB9ddf/YhebBM1YZriCQ2qaahbZXMxGbSpElyySWXyJIlSyKxrra7q0eSnXfeeW1rH8PVJkDA9Wv+swRc1yI4DzJZ4huxLI8ZSt4GIj05q6JFul4xr9djtcptlmm0Uq7LmSvh9lZ6vTKv2vvM58bKnx/5U7Qir176QkCR98Ej0pP7LjlDclZ5lMySM2SJv3mMje3ueVA22th/j61l0cL58uvfPy677fn+6JOPHTpSpk99RvoPGCR/e3ZOR+mdB3eJ/j1j7tpO5Ybvtqf89o+TY3uu66gPbXu6nbiKjWy2G1FcYvOjH/1ILr300kisv+c974m2wKu/eUHANQFfAu4mvffpNLQrLj5NLj7vlI739Ofrlj4evdfs/6455WUvS8CN62MIQTjtRfJ2i/SLzvmc3H7rzbFTf9b5l8npZ4d1m8hdd/5cvj7hnE5x1qVfI9KT0yxapNc7NE6NQG9D12VMgR23Ah/3nl5NV/bsbeza7ve+9QP51a//NxLsepU9OUG3JRHpyXmSMyRnlUfJLDlDCPkBK+l5eNG7bZwy9mh56MH7xUxwTGGtxbtKJs457UTR4nnqM0/JsUdsSOK1cDe7ri8AmO+Z4jskka7HcOONN8pZZ50VPX7ty1/+co4zRVNVIVB0wL3tl/fJuJPjxc7ow/avnTJ8fexU2CK9LPOVJeAi0t16gY5X9ayaF5vdtuzemr7gcPBHjpRJt93jvoGaRUR6cqxFi3S90t1IHOsySkx/4ujjosFp8W0K77j3zIsAZn1lQ6+8q7bVtnl7y31yiu5KItKTsyRnSM4qj5JZcgZEuoMZcg2x3asPjYb8g+98Xa675lLRiYIW47qOFu86oThh3Mny9Yk3iplg2CJf1bVFvXrPXonXbWjBX+TquckoSWLzX//1X9Hz0nlBwDWBogPuVsOOlPkLFsspn/mE3PT9CdHwTj3zCpn0099E/37yoZ/JyBHDm66c26Jd27315q93ugigV+KV7bgLBLo915yT2ssScOPacB0/ko4jabks/Wt3LNMXfif+8BY55rhPdQxJX/A132+0iyvuIrOyrV5695huy7wArWzW22Gm6jbbLab7Z1+gtuslnatm5ZLEsmY2qvJ50SI97tA4m70uo1fW1efmIXD6fV1Ob4m3t9LbK+nmPevq4DofTpJHpCf/5pEzdF5UCDlnyBJ/k3tM+pJsd0/PLlVNLaZ1kmCKcbWtUIt3vYJhJxlq5UKtqNsC20yCmm1DDFGkp4JNJQgkIFBkwNUiea89dpIpf72tU29HHDBWTjj28I4t7822t9cT6TYC3dbkKdNl1MGf3ojQoIH9ZN6L9ycg154iiPTkXNsp0s2YYgpn830Vj9TL3OWle69jmS3QtbhWt33ZO8XMuNZsN5ndTr1Vf9V3e5dZu1bTEenJfbdIkV7v0Diz943KxD26Ta+Gm9vc1Qr6ZVdfstEJ8qbQV20WeWCcHjMiPbnvkjN0ZhVyzoBIT+73dUu6htjOxCbJcM0Vbn2FXyUS5qqBuapgi2qzjtle3Hb2uG3xiPQks0SZqhAoMuBe+c1JMuHKH0qjbe16HtKKdL1Cry8INAqoPmyhR6Qn/+a1M5bZu7zsXmlBreOOvjis44u+EK3Fc9ytW3qnmN5hpv+v2rJ3kzVrp96qv+53vZ1lyWk3L4lIb85IlyhSpMcd9Gb3XItt8350s4xePY8uOr17Qry5gq630ett7/Zquj7xvZ795CTdlESkJ+dIzrCBVeg5g2t9mdyLkpVkJT0ZJ6elzGRDbX3XyYu5em7ej66TFXsrfNyKeRKhjkh3Op0YC5xA2QOuuRVNBdQ4ka63xuupNLfE5z29iPTkxNsp0pMeGmduczd7rkV6o8NSdQyzd44pO/Z7zdqxV9JNwW9fOEhOuLWSiPTkvIoU6cl72Z6S9mq7vt+9Pa0ls4pIT8ZJlSJnEClLzoBIT+73dUu6htjOxCbJcHXyo5IYteXPXk3Q7+steXEHwql2Gt1T3mj7OyI9ySxRpioEigy4eWx3NwW3KdL1dndTtId+VTzOZ13HD9ffiyz9a2cssw85tW/VUhySiN+4+8pt4R53P3rcbrJm95Lbq/92bG3XNnftE4j05N+Oqop0c6u8vbqenJ77koj05EzJGTbcEhd6zpAl/ib3mPQlWUlPzy51TTuR0Ped2/fuqVWGQw4fE3u/n25cb2ePO7k27iR5M7EK6eC41LCpCIEmBIoMuKpr7T44rp5I14fT2dvhVZ9YSc/va5MlSWinSI9bAdcxxVyl1ivc9vkpuoz+XJ8Er7e2K8IqfsUJfd2OKcqbtWPOmI6x9hkvzc5ryTrriPTkBKsq0vU2eR9OdDdnC5Ge3HfJGdYfcmsePBtqzpAl/ib3mPQlEenp2WWqqRMOe2XAXDVXSc3P/ucH0XNqzaRINVzv/ry4Ttn3pbOSnmnqqFwyAkUH3KSPYEt7T3o9ka7vh4+bzlADbtxYQgjCvj0nvd6hcXGr6XHb4s24Vu/Rn/UeL6rm0N5Npt5r1E69NrQoNz9vthqf5ecNkZ6cXlVFenJC+ZZEpCfnTc6wMatQc4YQ8gOek578u+mspE4a7O139gpCvcNw9GqEuRoed4pu3HNsEenOphFDJSBQdMDVCLUI1/83H8mm3nMt0pVNdYL808++EDWp2lMv9eg39di2sZ8cXcjsck96cuztWkmPe6Sn7pV9gTjynbFHi3o0qHrFiWDzfnJ1wdm+8GzWV59v897to0eV2ivfjdqxhbp5YdtcvW/nlndEenLfRaQnZ5VHSUR6csrkDOXJGRDpyf2+bknXENuV2DgYaiVNkNhUctq9GbQvATcrEB/uDcs6BlUfkZ6cYoixrN5tWMlH7W9JYlnyuUGkJ2eVR0lEenLK5AzJWeVRMkvO4Fpfuh4v291dE8VeywRIbFpGRgWHBEIPuOa29aKfV+piWrIE3Lj2QwjCvm13dzGP9WzoFe+4XV7tbDcP28Sy5JQR6clZ5VESkZ6cMjlDclZ5lMySM4SQH7DdPQ8voo26BEhscI4iCYQecI86brzc94e/RQiL3Kbuag6zBFxEuqtZaJ+dPJ5X3r7eN7ZMLEtOvplI188Rn/3c68mNVrSkOjH+tP88U7I8yg2Rntx5yBmSs8qjZJacAZHuYIZcQwxxi6ADjN6aILHxdmoq0bHQA27ZJilLwEWkl80bwhoPsSz5fCHSk7NqVPIznxsrf37kT/K9b/0Ake4GaVMr5AxNEeVaIEvO4Fpfuh44291dE8VeywRIbFpGRgWHBAi4DmE6MJUl4CLSHUwAJlITIJYlR9eqSNcr66YYPe+Sc+UXv7q1o9F//7dx8s3Lr43+/5t77pQvfuV0Uc8iV69pM6ZGf6uVebPel8efL+O/cFb0mX48mnrv29df02HXXs1v1K5pR/VV9UG/mtkx+5LEjvnMdVVeP3ddj92cjXt++XvZfdc96k4QK+nJfZecITmrPEpmyRkQ6Q5myDVEVtIdTIpDEyQ2DmFiqmUCBNyWkbW1QpaAG9cx1/HD9eCz9I9Y5no2stnLEsue2mSTjRrv95nPyHY/+Um2Tlm1F//0p/LyZz8rgy+5RAZfdllT26qsqqNf3XffXXZ59tmm9ZoVaEWkm+JZC2q9gmy38+EDD5Gf3nhbh0i3P1fPJ1+0eGGnt7V41u3E1XnyoWeit5u1q8rUs6NFdCM75oWGZnbiRPq1V31Xjv7kERvhb/ZcdkR6M4/d8Dk5Q3JWeZTMkjNkib95jI2V9Dwo00ZDAlkSG9BCICsBAm5Wgm7rZwm4cT0JIQhX6eA4t97il7UssUyJdFMAv3j44bLsD3+IRLoS665erYp03a7uz85//7ts/oEPZO5OUpGuhK1aBTfF63PTnu0QonqF2HxPrWCrl17FViLc/lzdv61X57UNLYrNtswV/PftsFPTdpVd245e2dZCWffFFs6qnnrpCwLN7Jhiv9F29yT39yPSk7s0OUNyVnmUzJIzhJAfcHCc5UVlPtjG9RdGndT7+drWsGOO+1Rq02kSG/Pq/vvXrUvd9rODBkmX2h8XKwOpO1FARZ2o1Vupeesf/5CX/+M/KsHFt4Db6vPQXbtPs/Zdt2fbyxJwEemdCRDLkntrUbFM99AW6eZv9IAzz5QZH/xgJOJXPfdcVEWJZfVS7+uXKejnXnqpzL388o0+s0W6/r8uaIpwM85ucdhh0UUD/Xm9evp9XV7ZjYszSUW67pe5Ffz6/7ou2o6uV811Gb0NXZXdbrvtO7a733vnH6IitljVItgW6ea2dNOmstGsXbXSb9vVbWtRrvtfzzvt/phb1dUYTHHf6J50eyW+0SF8iPTkvxXkDJ1ZhZwzINKT+33dkq4hNtsiSGKTbNL0824n/vCW3EW6uTWw1Sv7z++xRyXEZ6NZbCbS7YQxmUeEWcr3gGtTLcvz0Ot5CyI9+feIWJacVaOSRcYy3a8kIl2V1Rel1YVUJdCVGB72wANirnSrcuozLY5VzFPiXtU1RXrvY47pVE7bMMtpG+qC9toFCzpdHNCfxdXTuwLMts05aFWkq7paZGYR6abAbbdIN0WxKa6biXS9Kq77V8+OYmKL9LhVelbS3fxOaCvkDG55ZrWWJWdwrS+zjsWuz3b3GKK2SNf/N8XoRed8Tm6/9eaO2ieMO1m+PvHG6P933flzOee0E2X4buu3Lk2fuv5ephlz14pZ76zzL5PTz74o+mz/PbaWRQvni3rvumsu7bCr6pivRu2adlRfVR/0q5kdsy9J7Ohn3Wr7aqy//ePkjrGbfW72PNxWV9L11X19pd6+t67eCoIp7FUCMei88zruzVMrDjrZUX03VwNUAmTfl1dv9V4nJHr8SVY2VNl69fRYlB3VB/Wyx2uvaKgyOnmy+63f13W6DBwYJV5mHZ2MqffU53vMn9/BQ49LXxixdyIoxibHTs7r6X9cBtzbfnmfjDt5/Xdav5586GcycsTw6L9bDTtS5i9YLFdcfJpMuPKHHWXWLX2849/NrkrX+1w/fq1ZH1RDIw4YK08/+0Kq9pPYzzLVoiA9ngAAIABJREFUWQJuXLshBOF2bXcnlm2IrfViYpGxzPTXRtvdu++6a8dKut71pX/bdYzRol39xuuVd2XfvofcFOlrZs2Kftvt1XEVY+zPzIsAC7///br1ug4bFsWqOAFvjjepSDcPetPb0Jttd1crz/+c+ULsSnoSkZ52u3ujFXlTpNfb7m7/fqUR6XrlX4/BPESOlfQskWlDXXIGkVZyFp9zhhDyA7a7W99bM7ExxbMW1Pqqu/11P/gjR8qk2+6JFaqqbP8BgyIhbr60eNbt2DZVnb89Oyd6u1m7qkw9O1pEN7JjXmhoZicusbnmu/8jxx6xz0a/guYY4n4iWxHp5upBzwMPjLbzmVvptKjVQlaLX3NroC1g1WcvjRnTadu7Ep/qpQSqnQzVE6LmaoKqq8ppkVuvX0rs2/f6mfXsbf1mv+JY6gsRKnHTiZ1OwFpZ7TATRjP5U3ZNO2bfV02b1tKBRG7CZXYrrgLu5CnTa9scP71RhwYN7CfzXrw/el+LdLuQWaYVkW6K/ovPO0WS9MEW6KovSdtPYj/rjCDSkxNsZSWdWNaZq46JRcUye5bjDo7TccxeNVd1dWzQv+/1VtZ1O1qsx4l0uy/6HnhTwJvtaZEeV69XbWU/TqTbO95aEemqHXs1uNkBbubp7uZ29yQi3R5X3PZyu4y59T6JuLYPfdP24vqXZCVd1Vf3748Z/bFOJ9Ob/USkJ/9tbVSSnKE8OQMi3cF3wjXEpImNCuJqFdwUr1OfeapDiOoVYvM9dbVevfQqthLh9ufq/m19IUDb0AmU2Za5gr/j+3Zp2q6ya9vRq/paKOu+2MJZ1VMvfUGgmR1VNskWwSS3DrQi0uO29Jkrt41ErLkqrZIQcxuesrvy6acjUW6Xs1c4VL21tXKqrPnS9uJOv20mrk075uq0eZFBHdbTyI65w0Ct/uuXvbNAJUtaUNdb7TDHbCeDZpKnV03MlZcsZwQ4+Llo2YSrgBvXsC24tag+5TOfkJu+PyGqosvolfCkIn2vPXaKVsNNW836oK9om6L8qOPGy31/+Fu0uq+EfrP27TZcb79HpCd3YWLZPtHFbx23FLlQYpk9y41uMWok0uNW0s0T4XVd1Z76nY77zY67Zcy+ON1oJd0ci30rVb0D51oV6XFb3JM+gq1VkW4+gi3uVPSkj2BrJK4VM/tCg3n6u/o8idg3V8p1X80LAGpFXb3Uo+oaHS7HPenJf3fJGcqTM7jWl8m9KFlJtrvHcNLCUn9kbgX/wXe+Hm1H16vmuozehq7Kbjd0WMd2d7UFXL1ssapFsC3SzW3ppk1lo1m7aqXftqvb1omM7n8997D7Y25VV2OIW9mPuyfdXom3t9ub7ScV6XGJirnqHPe52Y4tNuOEqBKY5kq5meCYtvQKeVyiZb6n7DXrV1wb+sKDnbjVW8U3bcQd7GOv2NcT6bpuHBt7rFrg67Lq880GD47ujwzp1Y6Aa6+Y661h+n1zq9ipZ14hk376m8QiWYtizViLa5t5XB+u/OakaJv96MP2l3vvvD52mpKK9HpjzDr3iPTkBJOKdGLZfPEplsXNcKsivdE96fbvu3nhWbWtH8Gm70mPu6/dthF3T3qSemlFevJvgbuScaLYnXW/LSHSk88POUNnViHnDIj05H5ft6RriK0mNqpjWmRmEemmwG23SDdFsSmum4l0Lbh1/+rZUUzslfS4VXqXK+k62Mc5iimG651Ybq6A21u47RNp7S2ErT6vVl8QMO8PjLNh3/tubou3D/VpdNibZmO2YV+UiNuabq+kNxLp9Q7o03bVhYsBp52W6Nm7Dn4WnJlwFXD1VvBGW8fbIdIVCC36m/Uhq0hvZt/FpCDSk1Mklm04v8Wm5nMscyHSlQ37Aq/5G23voLLPI9Fb6e0zTcxzVFo53V3Xc7WSnvxb4K4kIn2sO5gltkTOkFyk+54zuNaXrt2elfQYoqaw1KvZeht6s+3u6mr9S/98PnYlPYlIT7vdvdGKvCnS6213tzGkEek2K73V3rzIEefASVbS661G21fpza3iOkkxV3z1lX97S7uZ7Nhi2txibtvU47G3pdv3oNfrV9ehQ6P76nWCY9pZetdd0Wc6mbK3H+q2zSTL3Gquy+v6+p7HRtvd40R6oxUbtQW/Xvuuf6zS2Dv11FNl5MiRcsYZZ9St7irg6hVxvf3cPCzFXkl3sd1d2bTbbNaHuD7ZdRpdFW9mP80c2XUQ6ckpJhXp5qGlxLL1O9sa7QprZyxLPrvlLtlsu3sRo0ekI9KT+B05w/rdfzqPCTlnQKQn8fgmZVxDbCWxUV2zV4ObHeBmnu5ubndPItJtFGkPjmu0Am4flKPbjOtfkpV0VV/dv//Rj32y08n05liybnc3t9opYahfjcS2KmMKbm1Drfj22GuvTs98VWX153H3VJuH+tinq+u+mKei223bKx5x/VJ19HNwlVi2T9Ct9ygb+wR3bUedAmz2SdvW9ys2OtzH3LVgPo5Hj9VcbVHv+frItqlTp8petbnu27evXHZZ7WkKp5++0a+Nq4CrV6njfs5skW6XSXpwm6rXKCAm6UPcwXHKrj6FPqv9rD/5iPTkBIllIzuenmJS8zmWJZ/dcpf0UaSXm3jj0bHdPfnskzOsZ1WGnMG1vkzuRclKspIew8kW5XFb3JM+gq1VkW4+gi3uVPSkj2BrJK7VkO0LDebp7+rzJCvp5kq57qt5AUCt2KiXelRdo2epJ1lJT+bOlILAxgT+7//9v3LLLbdInz59pFu3bnLppZd2EuuuAq5q2RTA6iqzeqkrzvpQuLhHsJkCXZVvdn+X/bm9hb1ZH+x+msE2SftJ7GfxQ0R6cnqtinRi2Xq29ko6sSy5z7kqiUh3RdKNHUR6co7kDBsEeug5AyI9ud/XLekaYrPExkGXWzYRJ4pbNhJohW9N+p1c9On1z5TfpPbYMvtlv5ekTFJblFtPOwnTJGWS2sqznFpNHzVqlKxevToaqxbrX/va1+S02j30LgNus69g3D3pzeoU/bnr09ubjQeR3ozQhs+JZclZ5VGSC87JKSPSk7PKoyQiPTllcobGrELKGVzry+RelKwkK+nJOLW9VJVF+qEHf1Des2ZRxHhd7TR0+2W/l6RMUluUW087CdMkZZLayrvcpptuKu+8804n1+rRo4esXbtWRh80RH77mzva/h1XDYQk0s2t8/ZqfzthIdKT00WkJ2eVR0lEenLKiPTkrPIomYdItw//NR+fa4+x3lMB8mDRrA1EejyhEHMGRHozb0/wuWuIJDYJoOdYhMQmR9gVbOrZ2r35H6idY7Bq1apo9L179462vV9wwQVyzjnnsJJexyf089PVx3q7fh7ug0hPTplYlpxVHiWJZckpI9KTs8qjZLtFun24brNH0yLS1896SBf2Q8wZXOtL199VVtJdE8VeywRIbFpGRoUWCJx44oly++23S/fu3SNxfuGFF8rZZ5/dYSHPq+ItdLuyRRHpyafeR5GevPflK1lkLPNZ1MTNNCLdL/9vp0iv9/hY+4k1jR75Z35mHrCrDhK2D+bVB9uaT9VRtNUBt3r1vl4d/b5uQ9WzHz9LzuCX72bJGRDpDubSNUQSGweT4tBEkYmNw2FgykMCahX9/e9/f3S6+1e/+tVO4lx3l4Dr18RlCbhxI3EdP1zTytI/Ypnr2chmr8hYhkjPNndVr91Okd7s8bHqaTe9DjtMzCfONHpkrPmZmrcZH/xgh/g2vwev1y7IL/vDHyKRvWratMi+ejpP72OOqVtH21N/xz3pR71PzuDXtyVLzpAl/uZBgZX0PCjTRkMCRSY2TE25CZx88smy7777yuc///m6AyXg+uUDWQIuIt2vuaxab9oRy+qt+Cm2oaw8xvkBK+l+fTvyEOn2irT2bSXS1UutuOsypti2H0cb95lePTdtauGvhPmaWbMi+0p42xcNzDoDzjwzEvBqJV09xjbuRc7gl+9myRkQ6Q7m0jVEVh8cTIpDE+1IbBx2D1MlJ0DA9WuCswRcRLpfc1m13riOZfZ9u6Y40SuDSuAogeLzyiMi3f9vQh4iXQtpTcPcBp9VpGtxb39n1PdCCW712mzwYBn2wAMdIj2uzpCrr+60yo5I9993s+QMrvWla1qspLsmir2WCbhObFruABUqTQCR7tf0Zwm4iHS/5rJqvXEdyxqt+GUVNXmuPCLS/f8mtFOkJ7knfXltW7oqp/2y0Wp50pV0ZUuX7TJwoAyoPXJ18GWXJVpJb3TyPDmDX/6cJWdApDuYS9cQWUl3MCkOTbhObBx2DVMVIEDA9WuSswRcRLpfc1m13riOZVqkx634bbbNNpm2B+e58ohI9/+b0E6RrkZf73R3va3cFvIudoaoQ+W0XdUHfY95ox0qqpx5j3vczJEz+OXPWXIG1/rSNRlW0l0TxV7LBFwnNi13gAqVJkDA9Wv6swRcRLpfc1m13riOZUlW0kNYeUSk+/9NaLdIVwSaPSc96RkLapVbHQhni25N2b73XW95N+8xt896qHfRCpHuv+9myRkQ6Q7m1zVEVtIdTIpDE64TG4ddw1QFCCDS/ZrkLAEXke7XXFatN65jWd73pLdr5RGR7v83IQ+RnpaCvcquVuXXzp8ve9T+FPEiZyiCev02s+QMrvWlazKspLsmir2WCbhObFruABUqTYCA69f0Zwm4iHS/5rJqvWlHLKu34qfYhrLyiEj3/5uQRKQvXbpUevfuXchg9HZ53bh9CF2enSJnyJN287ay5AyI9OZ8m5ZwDZGV9KbIcy3QjsQm1wHQWNAECLh+TV+WgItI92suq9abZrHsu9/9rixfvlwuuuiitqLxbeURkd7W6XZivJFIX7ZsmUycOFG23HJL+dKXvuSkvZCNkDP4NXtZcgbX+tI1GVbSXRPFXssEmiU2LRtsYwVz5ULfD5WmuWcHDZIutT/1nsOZxqbPdczTWNWWSp9eBFyfZkMkS8BFpPs1l1XrTVws+9e//iVX1x7rdO2110YCXQme7t27tx2NTyuPiPS2T3fmBuJEuvLVq666KhLom266qaxcuTJzO2UwQM7g1yxmyRkQ6Q7m0jVEVtIdTIpDEyGJdH3iqBq+fThJMyQqaaqKKLdZINKbeQefawJZAi4iHT8qkoAZy9asWROJc7V6rl5KoF944YVyWe0RULxEfvjl22TMyR8BhScETJGuxfl1110nm222maxdu1YmTJgQ+S+v2oXk3/277HrQeaDwhECWnMG1vnSNhJV010Sx1zKBUES6XkXXJ4sOvuSS6Jmb+jX30ktl7uWXd/xf3zNlCnv1uJFB550X3Uuo6qvy5vM49TZF/Z65cq8M11u9b7RqUq9fyl69erqOGoPqg3rZ41Xv2fdLmveJJb1fUjFZ9dxzHRc96tm0dx8orppTvTr6fd2G6rN9cYWA2/JXtq0VsgTcuI6FEISvP/uQVEy54JwKW9sqqVh2zec/2CHOu3TpIkuWLIna69mzZ/RvJXp4IdJ98wEl0k+89Jho5VyLcyXW1Uttc9d+7Fu/i+gPOUMR1Ou3mSVnCCE/2OTMiQ+uS5sk5DFVriGS2OQxa8nbCEGkm6fs9jzwwEhc9/vMZ0SJUvXSolYLWfOZoOpz9dxNXd589u1LY8Z02vauhKh6qVNL7cfvmKLUpKtXqbWAV+W6DBwY2ajXL1XWXt0269nb+s1+6bbzPnn49dpVfPXYFSWyV02b1nGho/cxx3R6rqk5Ls1e/V3vAgcBN/l3NY+SWQJuXP9cxw/XDLL0j1jmejbS21uxfJl8/oyzZMZjv4m2Ba9evbqTMSXOe/XqFW0bNv9sUvu9tt/z6XPVl3b0ce4TK+TMi/4zPXBqOiOwfMVyOe9LF8hfnr1fVq1aJW+//bYz22U0dPv3jpBPnnR1GYcW5Jiy5AxZ4m8esFhJz4MybTQkEIJIjxN+5gp4nIjVgzZXpZVQ1wJeC+WVTz/dSVCbK/BqBVhvka/32BFtzyyr227UL3tSzJVq8yKDuoc8zk6SZ/jqVWuT38Lvf1/UjoFGn2kG+kKA4tar9mxUvQNhzaxZkQ3FsFE/Bpx5ZiTg49jo8SPS/fqByhJwEel+zWXVeqNi2eUnjYjuP7/mmmuibcL6Nah2AXb69OnyzjvvdPqzrvYbZr9n/r/dn6u22t1GnP01s7vKly/7YtVcxNvx6pV0df/5N77xjUis61e/fv1k0aJF3vY9746RM+RNvHF7WXIGRLqDuXQNkdUHB5Pi0ITvIt1eMVZDN1ed4z438Zgr50rwqrpaNOrPlNhstH1b29Mr5DZ+c0u9+kzZa9Yve4u4qqcvPJh91OM1L0qo9+xxme1tts02TYV4EgFvj0H3S7W/2eDBMuyBBxr2Y0jtnlAl0u2+m/wIuA6/zA5MZQm4cc27jh8OhtjJRJb+Ectcz0Y2e2YsW7BgQSTWv/Wtb0UiXB0W973vfU/+8z9ZPVaUuSc9m6+5rm3fk26KdXXbhvLjs846y3WzQdojZ/Br2rLkDFnibx4UWEnPgzJtNCTgu0jXq8BxgzDFsLn93SxrroCbK8Nqtdi8B11v5VZC3i6X1IW0cFZ90avIcf2y7303t8Xr7eO6nv04H92XJCvpekU8biU9yWc2B21HXawYcNpp0ZkASVbSEelJPaj4clkCLiK9+Pmrcg/iYtnrr78u3/72t6MTstV2d32fb5U5IdL9m/16p7srv1X3qatbHszVdf9GkF+PEOn5sU7SUpacAZGehHCTMq4hsvrgYFIcmvBZpNdbjbbv5za3imvBq0WuuUJub303V7NtMW1uMbdtavz2tnT7HvR6/eo6dGh0X70WyqadpXfdFX2m76+3RbBuO+970tXFC33BQPVB32PeqB+qHCvpDr+sOZjKEnAR6TlMEE3UJdAolr3yyiuRWN97773lM7WLqFV/sZLulwc0e0662hWiDpBjNZ3T3f3y3GyPbXWtL12zYSXdNVHstUwgiUhfuHChDBgwoGXbWSsokbu2tm3RPhG8kdhWbZqCW9tQq7899tqr4/Az/bxw/XncwWbmNva409VVW7q+HqvZtr2lPa5fqp55wrp9z7h5D73N07Zvckp6urs+Ld8W3botm729FV+Vq9ePZlv+VV2uimf9lritj0hPzpMLzslZ5VEySSx74YUXZKeddsqjO163gUj3a3oaiXTd06VLl0rv3r396ngBvSFnKAB6gyaz5AyIdAdz6RoiiY2DSXFoolFio+7r+853viNbb721nFk7BIxX+ATs7fP1DsTLa6QE3LxIJ2snS8CNa8F1/Eg2iuSlsvSPWJaccx4lk4j0PPoRQhuIdL9mKYlI96vHxfWGnKE49nEtZ8kZssTfPCiwkp4HZdpoSCAusZlfe3zY1bVDv9RBO926dZO33noLiiUi0Oi57nkPk4CbN/HG7WUJuIh0v+ayar1BpCefcUR6clZ5lESkJ6dMzpCcVR4ls+QMiHQHM+QaIqsPDibFoQkzsdHi/Prrr5fNN988eoTNZbXDwb7yla84bBFTENhAgIDrlzdkCbiIdL/msmq9QaQnn3FEenJWeZREpCenTM6QnFUeJbPkDK71pevxspLumij2WiagEpuLx+0arZx/v/YM7Z49e4q690m91PM51YE76qVOF7VfRb2XtT8tQ6JC2wgQcNuGNpXhLAEXkZ4KOZUcEUCkJweJSE/OKo+SiPTklMkZkrPKo2SWnAGR7mCGXENkJd3BpDgyoVbKT/3CF+WFx+6UFStWbLSt/T3veU+03V291tWe/W2/inova39CvbhQxn5/YLcecs9ddzryaMxkJZAl4CLSs9KnfhYCiPTk9BDpyVnlURKRnpwyIj05qzxKZskZXOtL1+NlJd01Uey1TEAlNhPPPDB6juyVV14Z1V++fHn0t3rkx6JFi2TTTTdt2a7PFUK9uFDGfr/y8Bdk5GEX+uwulepbloCLSK+Uq3g3WER68ilBpCdnlUdJRHpyyoj05KzyKJklZ0CkO5gh1xBZSXcwKQ5NmInN22+/3Umsr1q1Sr7xjW/Iueee67BFTEFgAwECrl/ekCXgItL9msuq9QaRnnzGEenJWeVREpGenDI5Q3JWeZTMkjO41peux8tKumui2GuZQFxis2bNmkisX3755fLOO+/IypUrY+9Jb7kxKkDAIkDA9cslsgRcRLpfc1m13iDSk884Ij05qzxKItKTUyZnSM4qj5JZcgZEuoMZcg2RlXQHk+LQRKPERon1a6+9Vrp27cpqukPmmNpAgIDrlzdkCbiIdL/msmq9QaQnn3FEenJWeZREpCenTM6QnFUeJbPkDK71pevxVnYlffzYg2srs65xYq9VAuosuOtve0iuP/uQhlVXr17dcYBcq21QHgKNCKwPuOoRf/wgFO8p62Taw9+SXT/6C2ddCSEIN/v9qwdDjY1Y5sxVMhlKGssyNVKiypFI/4+P8LPrw5zW8rC7/+dBOe3bY33ojfd9IGfwaYqy5Qwh5AebnDnxwXVpk4Q8pso1xItu/Kt88oiR0mvzrnl0nzYaEFj+1hq5/f7JctXnD4ATBAoh8MIfPyc7jBgnXbpuUUj7NLqBwNo1y2TmlFtlp0NvdIbFdfxw1rF3DWXpH7HM9Wykt0csa43dTy67U/YfM0q6b77+6S28iiOw6q3V8te7npSTvnZccZ0IqGVyBn8mK2vOkCX+5kGhkivp37jlCTlo1DDZqj9JeR5O1qiNeYuWycNPvigXnLh30V2h/YoSmPnIeTJkxw9L916DK0rAn2GvWj5XXn/pz7LDgd901qkQgnDai+TEMmduktkQsaw1hP977e9k1w+8T/oMIA9rjZz70m8uXCbT/vFP+T/nftS98RJaJGfwZ1Kz5gwh5AeVW0n/7988I9ttPUjet90Afzytoj3558sLZdZr8+W0Y/esKAGGXTSBV564Rvr0e6/0HjC86K5Uvv2lC6fLm4tmy3v3cfdIvBCCcFqRTizz5ytDLGttLu6Z9GfpP6SvDBk6qLWKlHZO4PVZ82XhnCUy5tQPO7ddRoPkDP7MatacIYT8oHIi/S9TXpOps5fKYfvu7I+nVbQnDzw6Q3Yf2ls+NGKbihJg2EUTWDL7Plm56HHZeqejiu5K5duf88LvpEf/D0jf7Uc7YxFCEE4r0ollztwksyFiWWsIn33kBZn13Guy10G7tFaR0s4JPP3w8zJ0921kjwN3cm67jAbJGfyZ1aw5Qwj5QeVE+uKlq+Sanz0hpx6/nz+eVtGe/OiOR+WCT+8t/Xp3rygBhl00gbdXLpCZj5wvO+97RtFdqXz7Mx77frTVfbMeA52xCCEIpxXpxDJnbpLZELGsNYTLlqyQ2yfeK4ePPbC1ipR2TuCB2x6RE845Srbo29O57TIaJGfwZ1az5gwh5AeVE+nKvSb+YrLsPHSwDGerVWHftum1LVYzZs6Vcz41srA+0DAEFIHZj06QLQftLH0G7gaQggi8uWCqvDF/umy/35VOexBCEE4r0ollTl0ltTFiWTp0d1z/+2i7+zbDtkpngFqZCbz24jx5feZ8Of6LR2S2VSUD5AzFz7aLnCGE/KCSIn3qrMVy+4P/lHFHc2BZUV+1W+95Qk74yPtkt6H9iuoC7UIgIrB8wWSZP+1m2XHkSRApiMBLk38sg3Y9RXoNfL/THoQQhLOIdGKZU3dJZYxYlgqbvPz8HHnojifk4GM/kM4AtTITeOjX/5CDj99btttl68y2qmSAnKH42XaRM4SQH1RSpCv3+u/fPCv9+vaR9w/nxynvr9tT0+fIosVvyheO3SPvpmkPArEEXn3im7J5ry2l39ZcuMvbRRbPeULeWr5Ytt37AudNhxCEs4h0Yplzl2nJILGsJVwbFb7n5r9Ir96by9Ddts1miNotE5g19VVZ9sYKDoxrmdz6CuQMKcE5qOYqZwghP6isSH990Qq59udPylEH7Crbb93XgdtgIgmB2bVTRO99ZJqcO3aUDOnPPVBJmFGm/QRWL3tFZj16sWwz/Bjp1XfH9jdICxGB5Utektem3yVDa9vcu23xXudUQgjCWUU6scy52yQySCxLhKlhocVz3xC17X3kh3eTgdv2z24QC4kILHh1kUz+09TaNvcjpd/gPonqUKgzgdXLXq7lDBPIGXJ2DJc5Qwj5QWVFuvKrZ15cKLfcP12OPGC4bDcYod7u79rLc5fI/X+dLiceOVz2HMYj8NrNG/utEVg2/3F5/ekfyDY7Hy09++7QWmVKt0xgxZKZ8tqMe2TIXqfLFoP2abl+kgohBOGsIp1YlsQT3JYhlrnjqU55/+PPH5URH9pVBm7D7W/uyMZbWvDaYpnyl2ly6Kf2i05155WewLJ5tZzhGXKG9ARbq+k6ZwghP6i0SFfu8eCTr8q9j82WI/Ybzop6a9+XlkqrVYffPzpdRu+7vRw6iq1tLcGjcG4EFs+6Rxb+85ey9c4fZUW9jdTV1fA5M34nA4YdL/12OKZtLYUQhF2IdGJZ21xoI8PEMvesn35oujx+/7My4uBdWFF3j7fDolpBn/LQ87L34bvLiA/z+DsXqMkZXFBsbqMdOUMI+UHlRbpehfjJvdNk3z2Hco968+9KyyXUfXuPPTNLPnvUrqygt0yPCnkTUCvqc6ZcLwO3O5B71NsAX91PtuDlR2TrEePbtoKuux1CEHYl0jti2e9qsWwvYlkbXFeIZe2gut6mWlF/4Gd/lZ1H7cA96m3ArO5BnzF5phw+7gBW0B3zJWdwDNQy166cIYT8AJH+rjOo+/r+38MzZd7it2TUbu/l8WwOvnPq0TRPTH1FBvfbXD5+0A7cg+6AKSbyIaDuUV8w42eyZsUc6b/tB3g8mwPs6pEpi175u3TttY0M3PnTbbkH3e5mCEHYpUhX43994Qr5zSMzZT6xzIHXrjdBLHOGsqGhxXPflEfvfkqWzF8qO+6xHY9nc4BdPWbtpWdelr5b9Zb9xrx4dQeQAAAeh0lEQVSfe9AdMI0zQc7gHmy7c4YQ8gNEuuVX6pE29z46W+YteUuGbt0v+rNFz27Ss4f601U22cS9I4Zucd06kRUr19T+rJZlK1bLrDmLZWbtviclzo/ab3sesxb6BFe4/+pRK4te/JWsXj5HevXbMdoC37V7H+nStWftT68aGX4QNnaPdbJ2zfLanxWyZtWb0eFwyxe/KN1q4rz/sH+rPWZtZG4eFUIQdi3SNVxiWetuRixrnVk7aqjHsz1+/3PyxoKlMui9/Wtb4PvVnr7RQ7pt3lW613IxfnZjqNfysFW1HGz1W2tqT8tYKQteXSzzXl4ofQf1kX2O3J3HrLXDUWNskjOkAV1MzhBCfoBIr+NPi5eukmdnLpLnZi6WN5evkaU18bms9uPny+vv9/1YPjj6JF+6I1vUgmef2sWM3r26RqJ8zx37S7/e3b3pHx2BQBYCb69cIMvnP1l7pvqTsnb1ktqfN2p/3sxistR1u3SrXcjotmXtT9/o2ee9agfDbdZjYO5jDiEIt0uka9i+x7LcnaJJg8Qyf2Zk2ZIVMnvqHJk9bY6sePMteWvZKlm5fJU3Hbz7r7+SMQf8mzf96dGru2zeu4f0rP3ZbvhgGbrHtrJFX56iU8QEkTO0Rr2InCGE/ACR3pofeVN6k9qS/jp12Z8XBCAAAQjEEgghCLdbpOMaEIBAewiQh7WHK1YhkAeBEPIDRHoentCGNggObYCKSQhAoFQEQgjCiPRSuRyDqRAB8rAKTTZDLR2BEPIDRHqgbkdwCHTi6DYEIJAbgRCCMCI9N3egIQg4JUAe5hQnxiCQK4EQ8gNEeq4u4a4xgoM7lliCAATKSSCEIIxIL6fvMaryEyAPK/8cM8LyEgghP0CkB+p/BIdAJ45uQwACuREIIQgj0nNzBxqCgFMC5GFOcWIMArkSCCE/QKTn6hLuGiM4uGOJJQhAoJwEQgjCiPRy+h6jKj8B8rDyzzEjLC+BEPIDRHqg/kdwCHTi6DYEIJAbgRCCMCI9N3egIQg4JUAe5hQnxiCQK4EQ8gNEeq4u4a4xgoM7lliCAATKSSCEIIxIL6fvMaryEyAPK/8cM8LyEgghP0CkB+p/BIdAJ45uQwACuREIIQgj0nNzBxqCgFMC5GFOcWIMArkSCCE/QKTn6hLuGiM4uGOJJQhAoJwEQgjCiPRy+h6jKj8B8rDyzzEjLC+BEPIDRHqg/kdwCHTi6DYEIJAbgRCCMCI9N3egIQg4JUAe5hQnxiCQK4EQ8gNEeq4u4a4xgoM7lliCAATKSSCEIIxIL6fvMaryEyAPK/8cM8LyEgghP0CkB+p/BIdAJ45uQwACuREIIQgj0nNzBxqCgFMC5GFOcWIMArkSCCE/QKTn6hLuGiM4uGOJJQhAoJwEQgjCiPRy+h6jKj8B8rDyzzEjLC+BEPIDRHqg/kdwCHTi6DYEIJAbgRCCMCI9N3egIQg4JUAe5hQnxiCQK4EQ8gNEeq4u4a4xgoM7lliCAATKSSCEIIxIL6fvMaryEyAPK/8cM8LyEgghP0CkB+p/BIdAJ45uQwACuREIIQgj0nNzBxqCgFMC5GFOcWIMArkSCCE/QKTn6hLuGiM4uGOJJQhAoJwEQgjCiPRy+h6jKj8B8rDyzzEjLC+BEPIDRHqg/kdwCHTi6DYEIJAbgRCCMCI9N3egIQg4JUAe5hQnxiCQK4EQ8gNEeq4u4a4xgoM7lliCAATKSSCEIIxIL6fvMaryEyAPK/8cM8LyEgghP0CkB+p/BIdAJ45uQwACuREIIQgj0nNzBxqCgFMC5GFOcWIMArkSCCE/QKTn6hLuGiM4uGOJJQhAoJwEQgjCiPRy+h6jKj8B8rDyzzEjLC+BEPIDRHqg/kdwCHTi6DYEIJAbgRCCMCI9N3egIQg4JUAe5hQnxiCQK4EQ8gNEeq4u4a4xgoM7lliCAATKSSCEIIxIL6fvMaryEyAPK/8cM8LyEgghP0CkB+p/BIdAJ45uQwACuREIIQgj0nNzBxqCgFMC5GFOcWIMArkSCCE/QKTn6hLuGiM4uGOJJQhAoJwEQgjCiPRy+h6jKj8B8rDyzzEjLC+BEPIDRHqg/kdwCHTi6DYEIJAbgRCCMCI9N3egIQg4JUAe5hQnxiCQK4EQ8gNEeq4u4a4xgoM7lliCAATKSSCEIIxIL6fvMaryEyAPK/8cM8LyEgghP0CkB+p/BIdAJ45uQwACuREIIQgj0nNzBxqCgFMC5GFOcWIMArkSCCE/QKTn6hLuGiM4uGOJpfYQeOqpp2T//feXVatWtaeBJlbXrVtXSLs06g+BEIIwIt0ff6EnEGiFAHlYK7QoWwQB8rD61EPIDxDpRXxrHLRJcHAAERNtI6ACw7HHHiuzZ8+WIsQy34+2TW1QhkMIwoj0oFyKzkKggwBxBmfwmQB5WOPZCSE/QKT7/A1r0DeCQ6ATV4Fu68Bw9dVXy7hx4xDpFZhzX4cYQhBGpPvqPfQLAo0JkIfhIb4SIA9rPjMh5AeI9Obz6GUJgoOX01L5TpmB4ZhjjpHevXsj0ivvFcUBCCEII9KL8w9ahkAWAuRhWehRt10EyMOSkQ0hP0CkJ5tL70oRHLybksp3yA4MCggivfJuUSiAEIIwIr1QF6FxCKQmQB6WGh0V20SAPCw52BDyA0R68vn0qiTBwavpqHxn4gIDIr3yblE4gBCCMCK9cDehAxBIRYA8LBU2KrWJAHlYa2BDyA8Q6a3NqTelCQ7eTEXlO1IvMCDSK+8ahQMIIQgj0gt3EzoAgVQEyMNSYaNSGwiQh7UONYT8AJHe+rx6UYPg4MU0VL4TjQIDIr3y7lE4gBCCMCK9cDehAxBIRYA8LBU2KjkmQB6WDmgI+QEiPd3cFl6L4FD4FFS+A80CAyK98i5SOIAQgjAivXA3oQMQSEWAPCwVNio5JEAelh5mCPkBIj39/BZak+BQKP7KN54kMCDSK+8mhQMIIQgj0gt3EzoAgVQEyMNSYaOSIwLkYdlAhpAfINKzzXFhtQkOhaGvfMNJAwMivfKuUjiAEIIwIr1wN6EDEEhFgDwsFTYqOSBAHpYdYgj5ASI9+zwXYoHgUAj2yjfaSmBApFfeXQoHEEIQRqQX7iZ0AAKpCJCHpcJGpYwEyMMyAny3egj5ASLdzVznboXgkDvyyjfYamBApFfeZQoHEEIQRqQX7iZ0AAKpCJCHpcJGpQwEyMMywLOqhpAfINLdzXeulggOueKufGNpAgMivfJuUziAEIIwIr1wN6EDEEhFgDwsFTYqpSRAHpYSXJ1qIeQHiHS3c56bNYJDbqgr31DawIBIr7zrFA4ghCCMSC/cTegABFIRIA9LhY1KKQiQh6WA1qRKCPkBIt39vOdikeCQC+bKN5IlMCDSK+8+hQMIIQgj0gt3EzoAgVQEyMNSYaNSiwTIw1oElrB4CPkBIj3hZPpWjODg24yUrz9ZAwMivXw+EdqIQgjCiPTQvIr+QmA9AfIwPKHdBMjD2kc4hPwAkd6++W+rZYJDW/FW3riLwIBIr7wbFQ4ghCCMSC/cTegABFIRIA9LhY1KCQmQhyUElbJYCPkBIj3l5BZdjeBQ9AyUt31XgQGRXl4fCWVkIQRhRHoo3kQ/IdCZAHkYHtEuAuRh7SK7wW4I+QEivf1+0JYWCA5twVp5oy4DAyK98u5UOIAQgjAivXA3oQMQSEWAPCwVNio1IUAelo+LhJAfINLz8QXnrRAcnCOtvEHXgQGRXnmXKhxACEEYkV64m9ABCKQiQB6WChuVGhAgD8vPPULIDxDp+fmD05YIDk5xVt5YOwIDIr3yblU4gBCCMCK9cDehAxBIRYA8LBU2KtUhQB6Wr2uEkB8g0vP1CWetERycoay8oXYFBkR65V2rcAAhBGFEeuFuQgcgkIoAeVgqbFSKIUAelr9bhJAfINLz9wsnLRIcnGCsvJF2BgZEeuXdq3AAIQRhRHrhbkIHIJCKAHlYKmxUsgiQhxXjEiHkB4j0Ynwjc6sEh8wIK2+g3YEBkV55FyscQAhBGJFeuJvQAQikIkAelgoblQwC5GHFuUMI+QEivTj/yNQywSETPueVJ0+eLKNGjZJbb71Vxo0bF/09duxY5+24MphHYECku5ot7KQlEEIQRqSnnV3qQaBYAuRhxfK3WycPi5+P3r17y7p163KfLN+/HyHkB4j03N3WTYPNnH+rrbaS+fPndzSWt2i87bbbIrF6xRVXyMUXX+xm0IaVK6+8UiZMmNCS/Xb36dRTT5VJkybJ6NGj5d577+3orQocJ510kkyZMqUhhzRjSgM2L4GOSE8zO9RxSSCEIIxIdznj2IJAfgTIw8jD0nobeVhacu7qhZAfINLdzXeulhoFByXQ1WvevHnR30cddZTcd9998uSTT8rIkSNz7SeNiai52muvvZqK9DxY5RkYEOl5zChtNCIQQhBGpOPDEAiTAHlYOPNGHsZKuu2tIeQHiPRwfmM69bRecNCrsY1WzvWKsjaoxbt+X60EK1GvXqeccorcdNNN0b/r1dNbjJQQffrpp6OyV111lXz1q1/tWOnW/dJtmv3TK9D6M91mo/7Yq871+mZCM1fShw0bFq30my/V7m9/+1sZPHhwh6BWnPXKeKM26o3P3NEwaNCg6MJJvfHaY6pXLq3L5i3QEelpZ4p6rgiEEIQR6a5mGzsQyJcAeVjnlXTysOb+Rx7WnFFeJULIDxDpeXmD43bqBQe9al7v/hMtqLUQNsvrH1i96jtixIhIdCtbjerpz9QQdbumIB4zZkx0v7ZuM86uvlCQtD+moLXt12NQb7u7Yqle6sLBT37yk45dB88//3zHlv1GbdhszPEpu+YVXF02brxxY4orl8aViggMiPQ0M0UdlwRCCMKIdJczji0I5EeAPGyDSCcPa+535GHNGeVZIoT8AJGep0c4bCtpcNACVDWt7g+fNWtWdN+0vXquPtOry3ECXq/qxtXTP87mlu44ka76UG/bt70SrdrRIjmuP6agbTQm8374OJFu30dultF21YWHJOOvN764bVZx47377rs3us8+rlyaWxZ69Oghq1atcuiByU1xYElyVpR0SyCEIIxIdzvnWINAXgTIwzaIdPKw5l5HHtacUZ4lQsgPEOl5eoTDtpoFB/P+8zjhaXdFCeHDDjssWjm2RbGydcMNN0TiPq7eGWecEa2Umwem2YJYr27r+lqsm9ujlJgz75+vJ9JVf0xBq4NDXN/0Vn31md0ncweAyUuLalVnyJAh0SFw9tZz3ZbNyh6f+r8p0huN1xyTuR3f5pJGpDc74Maha3phqmrj9QK6h50IIQgj0j10HLoEgQQEyMM2LCyQhzV3mKrlJb6PN4T8AJHe/HvlZYlW7oWKE+lxh8jpco1Eelw9LXYbiXQN0RTGcSv7WUR6s4Px6l04MO+7V/3UfVD3kI8fPz46nd5eSa/nFPb4VF1TpNt2zPHGXXiwt7s3G2O9fvn+Y+n6S1a18brmVxZ7IQRhRHpZvI1xVI0AedjGIr1ZjkIelv8BbkV9L33Pw0LIDxDpRXlvxnZbOVVUH16mRLHemq4FdVJRrLprrpab9ezP1P/jDmnTYtg83O4Pf/hDtEKvH9Wmt+c32u5ur6Q3GpO56lzv4Dh7O7a92q3GY1+IaMTNPrwvTqTHjTdOpMeVYyW9+ZfH9+DQfASUcEEghCCMSHcx09iAQP4EyMM2iHTysOb+V7W8xPfxhpAfINKbf6+8LNHM+fXhZbrzcavc+jN90nqjlXQlDO2TO3W9JCvp9r3V5uq1eQK6PiFe2Vavetvv7fu36/XNnLxm2/7N++Xj7iNv1Eaj8Zlb/dUFgXrjffHFFzvdk16v3NixY1v2yWb+0rJBzytUbbyeT0dh3QshCCPSC3MPGoZAJgLN4gx52K1i5yvkYaykZ/rSOawcQn6ASHc44XmaahYc8uxLEW0ledRcEf3K0maaMS1evFj69evXtNmq+UvVxtvUASpaIIQgjEivqHMy7OAJVD3OpMlZfJ/0NGMiD4ufVd+/HyHkB4h0338x6vTPd+dvJ1Z9X7d+7ng728rLdtoxqUPtHn74YTnnnHMaivWq+UvVxpuXn4bWTghBGJEemlfRXwisJ1DlOJM2Z/HZd9KOiTwMkd4Ov1b5CyK9HWRzsFnl4JAD3qCa2HbbbWXevHly/vnny7nnnit9+/bdqP9V85eqjTcoh82xs4j0HGHTFAQqRoA4U7EJbzBc8rCN4fj+/QghP0CkB/ob47vzB4o1yG6rq7gnnHCCvP3226LueT/vvPMisb7lllt2jKdq/lK18QbpuDl0OoQgzEp6Do5AExBoAwHiTBugBmqSPAyR7tp1WUl3TTRHewSHHGEH0NTBBx8cbXtXr65du0Z/65X1Pn36VG5bHt+PAJw2hy4i0nOATBMQqCgB4kxFJ77OsMnDOoPx/fsRQn7ASnqgvzHK+fXL/Hej99RnScvGlat6fZ+ZrFixQtasWSOrVq3q8IsuXbrIv/71L7noootEHYZiP2ouUNdP1G3fg0OiQVAoM4EQgjAr6ZmnGQMQKIQAedgG7Elzy6x5ZKh52IUXXihXXXUVeVgh39T4RkPIDxDpHjlM2q7EiS/X76m+ubaZh72q9Pvkk0+Wv/zlL7Jy5crIjbp37y7777+/XHbZZaKu7lZNtFZtvGl/O8peL4QgjEgvuxcyvioQIJ9ZP8v1FgPy4OO6jVbzR/Kwzt903/OwEPIDRHoVogdjLDWBJ554Qg455BBZvnz5RuJcD9z3H0vXE1S18brmVxZ7IQRhRHpZvI1xQAACVSVAHrbxzPueh4WQHyDSq/qLwrhLQ2CvvfaS559/PloxVyvnBx100EZj8/3H0vVkVG28rvmVxV4IQRiRXhZvYxwQgEBVCZCHIdJd+z4Hx7kmij0I5ExAXb1V9zl96Utfkg996EN1W6+aaK3aeHN2u2CaQ6QHM1V0FAIQgECQBMjD4qfN9zwshPyAlfQgfxLoNATWE1DBYe+9926Kw/cfy6YDaLFA1cbbIp7KFA8hCLOSXhl3ZKAQgEAJCZCHIdLb4daspLeDKjYh4CGBqonWqo3XQ5fzokuIdC+mgU5AAAIQqDyBquUlvo83hPyAlfTK/2wAoAoEfP+xdD0HVRuva35lsRdCEGYlvSzexjggAAEI1CdQtbzE9/GGkB8g0vlFgUAFCPj+Y+l6Cqo2Xtf8ymIvhCCMSC+LtzEOCEAAAoh0TcD3PCyE/ACRzi8KBCpAwPcfS9dTULXxuuZXFnshBGFEelm8jXFAAAIQQKQj0t18C7gn3Q1HrEDAewJVE61VG6/3DlhQBxHpBYGnWQhAAAIQ6ESganmJ7+MNIT9gJZ0fEQhUgIDvP5aup6Bq43XNryz2QgjCrKSXxdsYBwQgAAFW0llJd/MtYCXdDUesQMB7AlUTrVUbr/cOWFAHEekFgadZCEAAAhBgJX3dOm+9IIT8gJV0b92HjkHAHYGqidaqjdedp5TLUghBmJX0cvkco4EABCAQR6BqeYnv4w0hP0Ck81sCgQoQ8P3H0vUUVG28rvmVxV4IQRiRXhZvYxwQgAAE6hOoWl7i+3hDyA8Q6fyiQKACBHz/sXQ9BVUbr2t+ZbEXQhBGpJfF2xgHBCAAAUS6JuB7HhZCfoBI5xcFAhUg4PuPpespqNp4XfMri70QgjAivSzexjggAAEIINIR6W6+BRwc54YjViDgPYGqidaqjdd7Byyog4j0gsDTLAQgAAEIdCJQtbzE9/GGkB+wks6PCAQqQMD3H0vXU1C18brmVxZ7IQRhVtLL4m2MAwIQgAAr6ayku/kWsJLuhiNWIOA9gaqJ1qqN13sHLKiDiPSCwNMsBCAAAQiwks4j2FJ/CxDpqdFREQJhEaiaaK3aeMPyxvx6i0jPjzUtQQACEIAAK+mspLv5FiDS3XDECgS8J1A10Vq18XrvgAV1EJFeEHiahQAEIAABVtJZSU/9LUCkp0ZHRQiERaBqorVq4w3LG/PrLSI9P9a0BAEIQAACrKSzku7mW4BId8MRKxDwnkDVRGvVxuu9AxbUQUR6QeBpFgIQgAAEWElnJT31twCRnhodFSEQFoGqidaqjTcsb8yvt4j0/FjTEgQgAAEIsJLOSrqbbwEi3Q1HrEDAewJVE61VG6/3DlhQBxHpBYGnWQhAAAIQYCWdlfTU3wJEemp0VIRAWASqJlqrNt6wvDG/3iLS82NNSxCAAAQgwEo6K+luvgWIdDccsQIB7wlUTbRWbbzeO2BBHUSkFwSeZiEAAQhAgJV0VtJTfwsQ6anRURECYRGommit2njD8sb8eotIz481LUEAAhCAACvprKS7+RYg0t1wxAoEvCdQNdFatfF674AFdRCRXhB4moUABCAAAVbSWUlP/S1ApKdGR0UIhEVAidaqvdZ5HByqNhdFjReRXhR52oUABCAAAZMAeZhf/hBCfrDJmRMfXHf92Yf4Rc7oje8QvQVHxyAAAQhUnIDv8cP3/lXcfRg+BCAAAQiUlIDv8ZeV9JI6HsOCAAQgAAGREIKwzxfJ8SEIQAACEIBAGQmEkB+wkl5Gz2NMEIAABCCASMcHIAABCEAAAhDYiAAi3YFT+A7RwRAxAQEIQAACbSDge/zwvX9tmBJMQgACEIAABAon4Hv8Zbt74S5CByAAAQhAoF0EQgjCbHdv1+xjFwIQgAAEIBBPIIT8gO3ueC8EIAABCJSSQAhBGJFeStdjUBCAAAQg4DGBEPIDRLrHDkTXIAABCEAgPYEQgjAiPf38UhMCEIAABCCQhkAI+QEiPc3MUgcCEIAABLwnEEIQRqR770Z0EAIQgAAESkYghPwAkV4yp2M4EIAABCCwnkAIQRiRjrdCAAIQgAAE8iUQQn6ASM/XJ2gNAhCAAARyIhBCEEak5+QM/387doyDQAwDUfT+t0aIFQ1dCus7PPrVep9HSgavIUCAAAECj8CG+4GSLq4ECBAgcKXAhkNYSb8yej6KAAECBMICG+4HSno4QEYjQIAAgXOBDYewkn6+X08SIECAAIETgQ33AyX9ZLOeIUCAAIG8wIZDWEnPx8iABAgQIHCZwIb7gZJ+Weh8DgECBAh8BDYcwkq6tBIgQIAAgVmBDfcDJX02E95GgAABAkMCGw5hJX0oDF5DgAABAgQegQ33AyVdXAkQIEDgSoENh7CSfmX0fBQBAgQIhAU23A+U9HCAjEaAAAEC5wIbDmEl/Xy/niRAgAABAicCG+4HSvrJZj1DgAABAnmBDYewkp6PkQEJECBA4DKBDfcDJf2y0PkcAgQIEPgIbDiElXRpJUCAAAECswIb7gcrSvrs2ryNAAECBG4RKJfg9yXBjwABAgQIEJgXqN8P8iV9fmXeSIAAAQIECBAgQIAAAQIE5gXef+Ir6fPu3kiAAAECBAgQIECAAAECBH4ElHShIECAAAECBAgQIECAAAECEQElPbIIYxAgQIAAAQIECBAgQIAAASVdBggQIECAAAECBAgQIECAQERASY8swhgECBAgQIAAAQIECBAgQEBJlwECBAgQIECAAAECBAgQIBARUNIjizAGAQIECBAgQIAAAQIECBBQ0mWAAAECBAgQIECAAAECBAhEBJT0yCKMQYAAAQIECBAgQIAAAQIElHQZIECAAAECBAgQIECAAAECEQElPbIIYxAgQIAAAQIECBAgQIAAASVdBggQIECAAAECBAgQIECAQERASY8swhgECBAgQIAAAQIECBAgQEBJlwECBAgQIECAAAECBAgQIBARUNIjizAGAQIECBAgQIAAAQIECBBQ0mWAAAECBAgQIECAAAECBAhEBJT0yCKMQYAAAQIECBAgQIAAAQIElHQZIECAAAECBAgQIECAAAECEQElPbIIYxAgQIAAAQIECBAgQIAAASVdBggQIECAAAECBAgQIECAQERASY8swhgECBAgQIAAAQIECBAgQEBJlwECBAgQIECAAAECBAgQIBARUNIjizAGAQIECBAgQIAAAQIECBBQ0mWAAAECBAgQIECAAAECBAhEBJT0yCKMQYAAAQIECBAgQIAAAQIElHQZIECAAAECBAgQIECAAAECEQElPbIIYxAgQIAAAQIECBAgQIAAASVdBggQIECAAAECBAgQIECAQERASY8swhgECBAgQIAAAQIECBAgQEBJlwECBAgQIECAAAECBAgQIBARUNIjizAGAQIECBAgQIAAAQIECBBQ0mWAAAECBAgQIECAAAECBAhEBJT0yCKMQYAAAQIECBAgQIAAAQIElHQZIECAAAECBAgQIECAAAECEQElPbIIYxAgQIAAAQIECBAgQIAAASVdBggQIECAAAECBAgQIECAQERASY8swhgECBAgQIAAAQIECBAgQEBJlwECBAgQIECAAAECBAgQIBAR+Jb0yDzGIECAAAECBAgQIECAAAECfy3wAt7E5VOZG0I9AAAAAElFTkSuQmCC" vertex="1" parent="1">
          <mxGeometry x="100" y="280" width="640" height="280" as="geometry" />
        </mxCell>
      </root>
    </mxGraphModel>
  </diagram>
</mxfile>
